<svg height="282.18" viewBox="0 0 285.07 282.18" width="285.07" xmlns="http://www.w3.org/2000/svg"><g transform="translate(-10.23 -27.09)"><g stroke="#000"><path d="m153.8 308.25c-4.56.05-8.08 0-11.58-.3-4.31-.36-8.61-.87-12.88-1.62a137 137 0 0 1 -65-30.27 134.79 134.79 0 0 1 -25.47-28.42 137.68 137.68 0 0 1 -21.21-52c-.77-4.11-1.29-8.25-1.68-12.4-.22-2.39-.14-2.47 2.15-3.24l2.33-.81a.78.78 0 0 0 .58-.89c-.07-.85-.13-1.71-.17-2.56 0-.58-.32-.65-.78-.5l-1.44.49c-.52.17-1 .39-1.56.51-1.94.43-2.68 0-3.06-1.82-.52-2.44-1.18-4.85-1.68-7.3a33.38 33.38 0 0 1 -.59-4.87 38.7 38.7 0 0 1 .14-8 2.06 2.06 0 0 0 -.39-2c-.34-.35-.23-.89-.15-1.35a151.81 151.81 0 0 1 6.51-26.9 142.94 142.94 0 0 1 28.52-48.3c.75-.83.76-.84.22-1.83l-8.47-15.64c-.3-.55-.6-1.1-.86-1.67s-.22-.92.39-1.24a58.2 58.2 0 0 1 10.61-4.32c.82-.24 1-.13 1.29.85.61 2.18 1.19 4.37 1.77 6.55.74 2.76 1.46 5.51 2.19 8.26 0 .19.12.38.16.57.13.5.37.55.73.21.83-.77 1.66-1.54 2.5-2.3a142.39 142.39 0 0 1 34.39-23.14 140.94 140.94 0 0 1 32.78-11c4.56-.92 9.14-1.65 13.76-2.13 3.57-.37 7.14-.62 10.73-.71 1.92-.05 3.83-.19 5.74-.12 4.48.15 9 .35 13.42.81a139 139 0 0 1 20.94 3.82 142.9 142.9 0 0 1 39.94 17.33 145.07 145.07 0 0 1 21.95 16.91 138.23 138.23 0 0 1 13 13.93l.45.54a.52.52 0 0 0 .82 0l.43-.4 10.94-10.42 4.67-4.43c.8-.75 1-.75 1.7.07a68.69 68.69 0 0 1 6.59 8.5c.69 1.05.66 1.26-.43 1.91l-9.05 5.39c-3.18 1.89-6.38 3.78-9.56 5.68-.88.53-.87.55-.28 1.4a142.43 142.43 0 0 1 22.38 51c.79 3.51 1.39 7 2 10.58.1.65.24 1.33-.36 1.86-.32.27-.2.63-.18 1 .13 1.67.38 3.33.37 5a57.76 57.76 0 0 1 -1.65 12.62c-.31 1.29-.63 2.57-1 3.85-.3 1.11-.69 1.36-1.85 1.38a4.73 4.73 0 0 1 -1.71-.33c-.7-.25-1.39-.52-2.09-.74s-1-.16-1 .7 0 1.48-.06 2.22a1 1 0 0 0 .76 1c1 .32 1.91.67 2.88 1 1.26.42 1.55.86 1.45 2.15a131.72 131.72 0 0 1 -6.51 31.67 138 138 0 0 1 -21.64 40.76c-2.2 2.84-4.56 5.54-6.94 8.23a132.1 132.1 0 0 1 -27.57 23.44 135.24 135.24 0 0 1 -29.19 14.21 138.35 138.35 0 0 1 -24.28 6c-4.05.62-8.12 1-12.21 1.3-2.93.27-5.82.16-7.65.27zm2.32-19.56c1.61 0 2.89-.12 4.18-.18 3.36-.17 6.69-.58 10-1.07a115.81 115.81 0 0 0 24.95-6.61 119 119 0 0 0 25.83-13.83 120.62 120.62 0 0 0 20.92-19 115.39 115.39 0 0 0 12.57-17.6 116.6 116.6 0 0 0 12-28.52 119.38 119.38 0 0 0 3.68-20.47 31.25 31.25 0 0 0 .27-5.72c-.08-.93.12-1.1 1.05-.86.22.06.44.15.66.22l9.42 3.22a8.42 8.42 0 0 0 .89.29c.84.2 1.06 0 1.11-.81 0-.66.05-1.33.05-2 0-1.08 0-1.12-1.09-1.49l-7.09-2.42c-1.44-.49-1.62-.73-1.64-2.28 0-2.49-.06-5-.22-7.48a120.23 120.23 0 0 0 -19.66-58.5 121.4 121.4 0 0 0 -47.52-42 118.21 118.21 0 0 0 -26.65-9.43 114.8 114.8 0 0 0 -16.4-2.53l-4.32-.3a67.58 67.58 0 0 0 -7.25-.27c-3.19.11-6.38.33-9.57.57a109.6 109.6 0 0 0 -12.51 1.69 120.72 120.72 0 0 0 -93.24 84.69 118.34 118.34 0 0 0 -4.69 28.33c-.08 1.91-.2 3.82-.17 5.73a1.48 1.48 0 0 1 -1.11 1.58l-1.23.4c-2.1.71-4.2 1.45-6.31 2.15a1.15 1.15 0 0 0 -1 1.36c.06.54 0 1.1.08 1.64.16 1.49.26 1.56 1.65 1.08 3.25-1.1 6.5-2.23 9.75-3.34a4.79 4.79 0 0 1 .89-.27c.58-.08.82.16.69.72a3.19 3.19 0 0 0 -.12.92c.29 4.2.66 8.39 1.31 12.56a117.61 117.61 0 0 0 72.45 91.33 115.69 115.69 0 0 0 25.91 7.1 111.23 111.23 0 0 0 15.25 1.38c1 0 2-.22 3-.12 1.23.15 2.39.1 3.23.14zm-3.35 18.72c.93-.05 1.87-.15 2.8-.16 3.2 0 6.39-.21 9.58-.49 3.89-.34 7.76-.84 11.6-1.53a137.19 137.19 0 0 0 29.66-8.85 134.52 134.52 0 0 0 26.59-15.13 127.27 127.27 0 0 0 20.51-18.43c2.55-2.91 5.11-5.8 7.47-8.85a134.71 134.71 0 0 0 15.53-25.7 138.61 138.61 0 0 0 6-15.14 131.91 131.91 0 0 0 5.24-22.13c.4-2.78.75-5.57.89-8.38.05-1-.05-1.12-1-1.47-.26-.1-.53-.17-.78-.27-2.28-.94-4.75-1.24-7-2.13-.54-.21-1.1-.39-1.66-.57-.92-.28-1-.26-1.07.72-.24 2.49-.4 5-.72 7.45a124.84 124.84 0 0 1 -73.3 98.55 123.18 123.18 0 0 1 -44.41 10.43 120.56 120.56 0 0 1 -15.44-.23 127.67 127.67 0 0 1 -14.83-2 123.26 123.26 0 0 1 -39.43-15.18 125.32 125.32 0 0 1 -47.32-50.51 121.41 121.41 0 0 1 -8.31-20.73 123.06 123.06 0 0 1 -4.37-21.75c-.22-2.1-.4-4.2-.62-6.29-.08-.68-.18-.75-.82-.55-3.27 1-6.52 2.07-9.79 3.1a1 1 0 0 0 -.82 1.1v.93c.21 1.86.4 3.73.64 5.58a128.93 128.93 0 0 0 5.09 23 138.28 138.28 0 0 0 31 52.87 126.93 126.93 0 0 0 11.78 11 135.83 135.83 0 0 0 37.68 22.33 137.67 137.67 0 0 0 49.63 9.41zm137-145.27c0-1.67.08-3.35-.08-5q-.56-6-1.69-11.92a137.23 137.23 0 0 0 -41.83-75.36 139.52 139.52 0 0 0 -20.24-15.5 136.77 136.77 0 0 0 -38.43-16.6 134.25 134.25 0 0 0 -17.11-3.32c-4-.52-8-.9-12-1-4.36-.15-8.73-.15-13.11.12s-9 .73-13.48 1.42a137.69 137.69 0 0 0 -105.3 81.07 138.13 138.13 0 0 0 -9.5 31.95 84.38 84.38 0 0 0 -1.27 12 52.21 52.21 0 0 0 .26 7.71c.23 2 .54 4 .88 6 .17 1 .36 1.12 1.34.75 1.57-.59 3.13-1.21 4.68-1.83 1.22-.49 1.23-.5 1.23-1.79 0-3.44.15-6.86.39-10.29a122.87 122.87 0 0 1 1.77-13.92 127 127 0 0 1 13.42-37.78 128.36 128.36 0 0 1 29.23-36.18 126.63 126.63 0 0 1 26.8-17.67 128.07 128.07 0 0 1 29.77-10.4 131.28 131.28 0 0 1 25.06-2.92c3.87-.09 7.72.12 11.58.37 3.31.22 6.61.58 9.88 1.08a128.77 128.77 0 0 1 17.24 3.87 128.28 128.28 0 0 1 87.95 90.51 118.92 118.92 0 0 1 3.42 18.62 112.85 112.85 0 0 1 .77 11.32v3.75a1.07 1.07 0 0 0 .72 1.19c1.85.71 3.7 1.46 5.55 2.18.52.2.83 0 .92-.52.05-.27.12-.54.17-.81a48.23 48.23 0 0 0 1.01-11.1zm-137.25-129.89c2.54 0 4.8.1 7.07.19 3.94.17 7.86.57 11.76 1.07 4.33.57 8.62 1.39 12.88 2.39a138.67 138.67 0 0 1 81.4 54.46 137.41 137.41 0 0 1 18.37 35.79 139 139 0 0 1 5.75 23.27 77 77 0 0 1 1.14 10.81 58.89 58.89 0 0 1 -1.19 13.37c-.08.38-.12.77-.17 1.16 0 .2 0 .42.21.49a.42.42 0 0 0 .53-.33 7 7 0 0 0 .24-.78c.39-1.55.82-3.1 1.16-4.66a54.56 54.56 0 0 0 1.33-10.19 47.57 47.57 0 0 0 -.36-5.6c-.06-.65-.36-1.38.12-1.92a1.46 1.46 0 0 0 .32-1.39 140.89 140.89 0 0 0 -44.39-83.89 145.44 145.44 0 0 0 -19.57-15 141.73 141.73 0 0 0 -61-21.49c-4-.44-8.08-.68-12.13-.83a128.92 128.92 0 0 0 -13.33.37q-5.79.39-11.51 1.28a141.68 141.68 0 0 0 -115.35 103.34 127.36 127.36 0 0 0 -3.27 16c-.07.46-.23 1 .17 1.34s.42 1 .36 1.62c-.14 1.2-.3 2.4-.35 3.61a43.4 43.4 0 0 0 1 12.08c.48 2 1 3.94 1.48 5.91.07.27.19.57.53.5s.32-.38.25-.66c-.33-1.41-.42-2.85-.66-4.27a59.08 59.08 0 0 1 -.27-16.1 114 114 0 0 1 2.35-13.6 138.4 138.4 0 0 1 14.52-37.78 134.67 134.67 0 0 1 18.56-25.48 139.36 139.36 0 0 1 102.05-45.08zm2.23 13.31a97.42 97.42 0 0 1 12.51.81 122.14 122.14 0 0 1 15.88 2.9 124.88 124.88 0 0 1 65.61 41.23 123.87 123.87 0 0 1 28.68 78.5v1.17a.67.67 0 0 0 .44.64c.62.23 1.25.44 1.88.64.33.11.54 0 .58-.36a7.22 7.22 0 0 0 0-.93c0-2.42 0-4.83-.18-7.25-.21-3-.51-6.07-.85-9.09a114.75 114.75 0 0 0 -2.2-12.32 126.54 126.54 0 0 0 -39.53-66.7 127.85 127.85 0 0 0 -80.37-32.07 119 119 0 0 0 -14.62.36 131.77 131.77 0 0 0 -14.13 1.91 127.25 127.25 0 0 0 -103.3 124.7c0 2.05-.13 2 1.76 1.3 1.12-.42 1.14-.4 1.14-1.55a119 119 0 0 1 .95-14.12 124.22 124.22 0 0 1 43.48-80.57 122.65 122.65 0 0 1 32.61-19.76c15.31-6.29 31.25-9.42 49.66-9.44zm-2.2 248.78c4.11 0 8-.11 11.82-.46a123.21 123.21 0 0 0 18.1-3 121.15 121.15 0 0 0 29.38-11.41 123.9 123.9 0 0 0 30.15-23.15 125.55 125.55 0 0 0 15.22-19.4 122.11 122.11 0 0 0 12.89-27.23 124.47 124.47 0 0 0 6-31.17c.07-1 0-1.08-1-1.43-1.22-.44-1.31-.4-1.43.9-.14 1.63-.18 3.27-.35 4.9a127.74 127.74 0 0 1 -2.91 16.82 121.18 121.18 0 0 1 -78.27 85.71 122 122 0 0 1 -39.15 6.63 118.64 118.64 0 0 1 -12.5-.64 119.65 119.65 0 0 1 -49.79-16.51 122.81 122.81 0 0 1 -29.56-24.81 120.93 120.93 0 0 1 -16.44-24.41 118.07 118.07 0 0 1 -10.13-28.11 123 123 0 0 1 -2.74-19.57c-.09-1.42-.08-1.43-1.39-1l-.22.07c-.81.33-.88.45-.82 1.32.27 3.93.69 7.84 1.3 11.74a123.81 123.81 0 0 0 66.76 91.23 121.24 121.24 0 0 0 19.89 7.88 127 127 0 0 0 25.49 4.76c3.31.32 6.63.36 9.7.34zm.73-247.73a113.61 113.61 0 0 0 -14.12.71 126.11 126.11 0 0 0 -15.16 2.68 123.16 123.16 0 0 0 -65.4 40 124.35 124.35 0 0 0 -14.83 21.71 122.31 122.31 0 0 0 -10 24.93 124.28 124.28 0 0 0 -4 20.78c-.27 2.64-.41 5.29-.6 7.93-.1 1.36-.07 2.74 0 4.1 0 .64.23.73.82.6s.73-.69.74-1.26a121.87 121.87 0 0 1 111.66-120.19c1.55-.13 3.11-.2 4.66-.34a49.41 49.41 0 0 1 6.66-.2c2.1.09 4.21.15 6.31.31 3 .23 5.92.42 8.85.82a126.13 126.13 0 0 1 18.53 3.91 120.44 120.44 0 0 1 26.22 11.19 122.66 122.66 0 0 1 48.29 50.94 119.46 119.46 0 0 1 10.37 29.51 114 114 0 0 1 2.58 21.93c0 .78.09 1.56.14 2.34a2.2 2.2 0 0 0 .1.57.84.84 0 0 0 .84.52c.44 0 .44-.37.46-.68s0-.63 0-.94a123.5 123.5 0 0 0 -11.4-50.48 123.89 123.89 0 0 0 -71.69-64.64 124.52 124.52 0 0 0 -30.16-6.37 95.3 95.3 0 0 0 -9.87-.38zm135.06 28.76c-.12-.22-.27-.49-.44-.75a58.93 58.93 0 0 0 -4.95-6.5c-1.17-1.31-1.14-1.34-2.42-.12l-8.83 8.36c-1.95 1.85-3.9 3.7-5.84 5.57-.72.69-.72.78-.14 1.56.78 1.06 1.61 2.1 2.38 3.18.38.54.75.6 1.25.22a5.09 5.09 0 0 1 .5-.3l15-8.88 2.91-1.71c.24-.15.5-.25.58-.63zm-235.49-7.12c0-.06-.06-.29-.12-.52q-1.73-6.44-3.44-12.87c-.2-.75-.42-1.5-.63-2.25a.54.54 0 0 0 -.79-.42l-.67.21a45.92 45.92 0 0 0 -8 3.27c-.92.47-.93.45-.47 1.38l.27.52 5.16 9.57c1.09 2 2.17 4 3.27 6.07.38.7.5.73 1 .22 1.35-1.35 2.68-2.72 4-4.09a1.12 1.12 0 0 0 .42-1.09z" stroke-width="2"/><path d="m161.15 93.22v5.62a6.66 6.66 0 0 1 -1.24 4.18 6 6 0 0 1 -4.88 2.37c-1.45 0-2.89 0-4.33 0a5.93 5.93 0 0 1 -4.87-2.37 5.13 5.13 0 0 1 -1.13-3.14c0-4.44 0-8.89 0-13.34a5.6 5.6 0 0 1 4.73-5.33 25.57 25.57 0 0 1 6.42-.12 5.77 5.77 0 0 1 5.15 4.66 10.43 10.43 0 0 1 .2 2.09c-.06 1.79-.05 3.59-.05 5.38zm-1.14 0c0-2.18 0-4.36 0-6.54a4.47 4.47 0 0 0 -3.74-4.45 20.82 20.82 0 0 0 -6.4-.07 4.56 4.56 0 0 0 -4.15 4.84c0 4.13.06 8.26 0 12.39a4.94 4.94 0 0 0 4.95 5h4.45a4.82 4.82 0 0 0 4.93-5c-.05-2.03-.05-4.1-.05-6.17z" stroke-width=".25"/><path d="m135.1 246.09a6.3 6.3 0 0 1 4.33-6.18 6.57 6.57 0 0 1 7 1.91c.48.58.52.79 0 1.31-1.05 1.09-2.15 2.15-3.24 3.21a1.21 1.21 0 0 1 -.49.31.85.85 0 0 1 -1-.3.74.74 0 0 1 0-1 5.23 5.23 0 0 1 .54-.61c.53-.53 1.06-1 1.58-1.58.67-.7.65-.9-.26-1.33a4.62 4.62 0 0 0 -6.24 2.21 4.32 4.32 0 0 0 .58 4.83 4.38 4.38 0 0 0 4.81 1.59 4.53 4.53 0 0 0 3.34-3.57c.09-.34.09-.7.18-1a.85.85 0 0 1 .86-.67.87.87 0 0 1 .86.81 3.52 3.52 0 0 1 -.18 1.61 6.47 6.47 0 0 1 -12.41.39 5.77 5.77 0 0 1 -.26-1.94z"/><path d="m170.32 257.11a3.89 3.89 0 0 1 -.57-.11.78.78 0 0 1 -.59-.78.74.74 0 0 1 .64-.73c.26-.07.54-.06.81-.12a3.15 3.15 0 0 0 2.26-4.05c-1.15-3-2.34-5.95-3.5-8.93-.12-.29-.24-.58-.33-.87-.22-.73-.08-1.17.43-1.39s.95 0 1.25.7c.49 1.23.93 2.48 1.39 3.72.52 1.43 1 2.86 1.57 4.28.1.24.11.65.39.66s.38-.43.48-.7c.95-2.47 1.88-4.95 2.82-7.43a4.81 4.81 0 0 1 .44-1 .73.73 0 0 1 .92-.32.77.77 0 0 1 .54.92 4.51 4.51 0 0 1 -.28.88q-2.19 5.61-4.4 11.21a15.13 15.13 0 0 1 -1 2.12 3.65 3.65 0 0 1 -3.27 1.94z"/><path d="m149.65 244.45c0-1 0-2 0-3a3.69 3.69 0 0 1 .06-.81.84.84 0 0 1 .8-.73.89.89 0 0 1 .92.74 4.63 4.63 0 0 1 .05 1.74 38.39 38.39 0 0 0 -.07 5 2.82 2.82 0 0 0 2.34 3.06 2.85 2.85 0 0 0 3.46-2.17 5.91 5.91 0 0 0 .15-1.51c0-1.79 0-3.58 0-5.38 0-1 .32-1.45 1-1.43s.91.43.91 1.38c0 2.22.06 4.44-.14 6.66a4.48 4.48 0 0 1 -5.1 4.16c-2.82-.2-4.35-2-4.39-4.77 0-1 0-1.95 0-2.93z"/><path d="m161.87 246.32c0-2.14 0-4.29.18-6.42.22-2.93 2.27-4.82 5-4.56a2.44 2.44 0 0 1 1.12.31.72.72 0 0 1 .39.78.67.67 0 0 1 -.65.58c-.46 0-.93 0-1.4 0a2.55 2.55 0 0 0 -2.53 2.42c-.06.5.09.75.6.76h.94a7.2 7.2 0 0 1 .81 0c.6.11.93.46.87.91a.83.83 0 0 1 -.9.75c-.46 0-.93 0-1.4 0-1 0-1.06.1-1.07 1.09v7.25a5.62 5.62 0 0 1 -.09 1.16.88.88 0 0 1 -1.73 0 5.1 5.1 0 0 1 -.08-1c-.07-1.3-.06-2.67-.06-4.03z"/></g><path d="m159.58 93.26v4a5.82 5.82 0 0 1 -5.88 5.86c-.66 0-1.33 0-2 0a5.77 5.77 0 0 1 -5.54-5.46c-.09-2.89-.08-5.77 0-8.66a5.74 5.74 0 0 1 5.07-5.56 11.07 11.07 0 0 1 3.72.08 5.76 5.76 0 0 1 4.62 5.45v4.33zm-1-.06v-4.33c0-2.16-2.37-4.88-4.72-4.54a16.63 16.63 0 0 1 -1.87 0 4.72 4.72 0 0 0 -4.78 4.75q-.08 4.1 0 8.19a4.71 4.71 0 0 0 4.76 4.76h1.87a4.75 4.75 0 0 0 4.75-4.77c-.05-1.33-.04-2.69-.04-4.06z"/><path d="m152.73 98.41a4.78 4.78 0 0 1 -4.46-3 4.94 4.94 0 0 1 1.21-5.28 3.67 3.67 0 0 1 .87-.58.61.61 0 0 1 .83.19.6.6 0 0 1 -.07.85c-.24.26-.52.47-.76.73a3.53 3.53 0 0 0 -.55 3.92 3.26 3.26 0 0 0 3.42 1.73 3.06 3.06 0 0 0 2.72-2.08 3.34 3.34 0 0 0 -.77-3.68c-.2-.23-.48-.39-.7-.61a.62.62 0 0 1 -.12-.85.68.68 0 0 1 .84-.23 2.39 2.39 0 0 1 .87.57 4.75 4.75 0 0 1 1.25 5.34 4.68 4.68 0 0 1 -4.58 2.98z" stroke="#000" stroke-width=".25"/><path d="m152.24 89.81c0-.47 0-.93 0-1.4a.66.66 0 0 1 1.29-.1 7.3 7.3 0 0 1 0 3.12.6.6 0 0 1 -.61.46.61.61 0 0 1 -.63-.57c-.06-.5-.06-1-.09-1.51z" stroke="#000" stroke-width=".25"/></g></svg>