<?xml version="1.0" encoding="UTF-8" standalone="no"?>
<!DOCTYPE svg PUBLIC "-//W3C//DTD SVG 1.1//EN" "http://www.w3.org/Graphics/SVG/1.1/DTD/svg11.dtd">
<svg version="1.1" xmlns="http://www.w3.org/2000/svg" xmlns:xlink="http://www.w3.org/1999/xlink" preserveAspectRatio="xMidYMid meet" viewBox="244.0014547856888 223.66070139485976 137.415211880978 137.5084524747433" width="480" height="480.34"><defs><path d="M269.62 239.4C238.42 264.6 236.55 312.2 265.88 339.53C281.62 354.33 300.82 360.47 321.88 357.4C352.68 353 378.42 324.2 378.42 294.2C378.42 285.8 376.68 283.67 370.02 283.67C365.22 283.67 363.35 286.87 362.28 296.2C360.55 313.53 349.35 329.4 333.22 337.4C325.22 341.27 323.48 341.67 311.75 341.67C300.68 341.53 298.15 341.13 291.48 337.93C280.28 332.47 271.22 323.67 266.15 313.27C262.02 305 261.75 303.4 261.75 291C261.75 278.87 262.15 277 265.62 269.93C276.02 249.53 298.02 237.53 318.95 241C328.15 242.47 338.68 247 342.55 251.13C342.75 251.35 343.78 252.41 345.62 254.33C335.86 264.25 330.43 269.76 329.35 270.87C319.62 280.6 313.08 288.33 313.08 289.8C313.08 294.33 316.42 297.4 320.95 297.4C324.68 297.4 327.88 294.87 345.88 276.87C359.75 263 366.42 255.4 366.42 253.53C366.42 250.2 354.55 238.73 346.02 233.8C333.48 226.47 318.15 223.4 303.08 225.13C291.88 226.47 278.82 232.07 269.62 239.4Z" id="i3tQdcscdH"></path></defs><g><g><use xlink:href="#i3tQdcscdH" opacity="1" fill="#000000" fill-opacity="1"></use><g><use xlink:href="#i3tQdcscdH" opacity="1" fill-opacity="0" stroke="#000000" stroke-width="1" stroke-opacity="0"></use></g></g></g></svg>