<svg height="342.28" viewBox="0 0 497.41 342.28" width="497.41" xmlns="http://www.w3.org/2000/svg"><g stroke="#000" stroke-miterlimit="10" stroke-width="2" transform="translate(-2.5 -.91)"><path d="m31 226.36-3.46.47c-1.73.25-4 1.66-5-.45-1.12-2.37 1-4 2.78-5.2a66.5 66.5 0 0 1 35-12 110.14 110.14 0 0 1 20.46.41c1.66.21 3 .11 3.77-1.55 1.89-4.39 4.91-8.32 5.42-13.29.39-3.74 2.71-6.74 4.1-10.09.82-2 2.49-1.84 4.24-1.56s3.7.55 5.2-.91 2.34-3.33-.51-4c-4.06-.95-7.58-3.77-12.4-2.32-3.65 1.11-7.24-6.55-6.29-11.49 1.36-7.08 5.45-12.82 9.11-18.58 6.32-9.95 7.75-20.14 5-31.43-1.73-7.2-.25-14.58.68-21.8.78-6 7.41-8.09 14.91-5.48 6.07 2.12 5.61 7.53 7 12.14.58 1.9-1.22 5.58 2.31 5.39 3.29-.19 5.61-2.12 5.6-6.56 0-8.76 2.82-17 7-24.66 2.37-4.36 1.71-5.69-3-6.17-2.36-.25-4.34-.44-4.22-3.52.07-1.94.16-3.82 2.68-4s5.49-.67 6.72 2.7c.46 1.28-.15 3.61 2 3.33 1.94-.26 2.06-2.27 1.93-4-.28-3.77 1.2-7.34 1.07-11.21-.14-4.18 4.16-6.08 7-8.43 1.52-1.24 4.6-.09 5.41-2.79 1.13-3.79 3-7.65 1.91-11.64-2.58-9.48 1.58-16.5 7.58-22.98 1.86-2 4-3.81 7-2.11s1.85 4.29 1.26 6.68c-1.61 6.61-3.32 13.2-4.94 19.81-.62 2.57-1.73 4.26-4.59 5.21-4.86 1.62-3.64 6.56-4.26 10.17-.51 2.94 1.67 4.81 4.77 5.3 4.64.74 9.06 1.74 11.7 6.43.63 1.12 3 1.27 4.48 1.91 4.08 1.71 5.7 5.59 3.91 9.31a6.33 6.33 0 0 1 -9.33 2.69c-4.22-2.48-8.9-3.51-12.6-.73-5.34 4-11.19 8.37-11.39 16-.08 3 2.65 5.39 4.54 7.45 2.61 2.85 2.44 5.13.61 7.91-1.73 2.61-1.74 4.22 1.43 6.3 9.39 6.15 9.42 8.75 1.23 16.53-1.38 1.31-2.54 2.67-2.48 4.66a14.34 14.34 0 0 1 -2.31 8.49c-.42.64-1.2 1.49-.43 2.21s1.49 0 2.08-.6c1.93-2.08 2.6-.94 2.38 1.11a14.62 14.62 0 0 1 -3.09 7.77 3.42 3.42 0 0 1 -1.56 1.17c-3.7 1-3.94 1.13-2.69 5.51 2.92 10.22 6 20.4 9 30.57q9 29.79 18.19 59.56c4 13 13.46 20.06 27.05 20 8-.06 16-.34 23.95-.62 8.53-.31 13.92-5 18.78-10.78 2.49-3 7.09-5.49 3.75-10.86-.9-1.44 1.18-2.93 2.4-4 6.54-5.72 7.23-12.39 4.29-20.3-4.9-13.24-9.3-26.66-13.86-40-1-2.81-2.24-5.58-1.76-8.69.12-.84.33-1.7-.83-2-4.93-1.21-4.58-5.35-4.31-8.79a29.07 29.07 0 0 1 4.81-13.49c2.93-4.53 6.95-6.74 12.45-7 26.6-1.26 53.19-2.74 79.78-4.08 5.72-.29 10.62-2.76 15.32-5.59s8.42-2.27 12 1.69c4.33 4.83 8.79 9.54 9.09 16.59a7.93 7.93 0 0 0 1.18 2.69c.69 1.41 2.53 2.9.84 4.38s-3.29-.34-4.83-1.21c-1-.58-2.61-2.62-2.77-1.83-.38 1.94-2.52 3.79-.86 6.07 2.41 3.31 5.34 5.14 9.66 5.1 15.83-.12 31.67.29 47.49-.12 7.67-.2 14.5 3.11 22 3.76 4.48.39 6.62 4.63 6.71 9.29.08 4.36-2.43 6.87-6.34 7.81s-7.57 3.55-11.89 3.45c2.67 6.3 6.69 11.85 10 17.79.49.88 1.85 2.12.35 2.92-.86.46-1.61-1-2-1.84-2.95-5.94-8.81-10-10.61-16.72-.67-2.5-2.83-2.06-4.56-1.72-13.82 2.75-27.92 1.21-41.82 2.76-1.65.18-3.34.05-5 .21-9.57 1-8.72 1.35-9.51 10.56-.59 6.9 4.67 9.53 6.8 14.28 1 2.16 3.27.14 4.86-.35 22.11-6.92 43.08-5 62.52 8.14a63.75 63.75 0 0 1 19.69 21.55 8.75 8.75 0 0 0 7 4.88c5.49.68 6.9 2.47 4.87 7.45-1.33 3.27.7 2.47 2.07 2.58 5.64.43 11.3.72 16.94 1.12 2.12.15 4.92-.12 5.31 2.59.47 3.28-2.71 2.85-4.61 3.11-8.79 1.22-17.52 2.53-26.31 3.22-3 .24-3.57.51-3.2 3.56 2.11 17.46-1.75 33.57-13.18 47.1-17 20.1-38.85 28-64.46 21.08s-40.57-24.31-45.55-50.25a25.77 25.77 0 0 1 -.73-4.91c0-10.59-.51-8-9-10-1.95-.45-4-.56-5.89-1.08-5.34-1.43-10-1.95-11.55 5.23-.62 2.95-3.31 2.84-5.71 2.68-1.76-.11-2.93-.72-1.92 2.31 1.84 5.52-1.27 9.37-7.48 10.43-4.46.76-9.39-1.07-13.35 2.48-.26.23-1 .12-1.43-.09-9.65-4.76-19.72-.89-29.56-1.54-6.09-.4-13.07 2.94-17.9-3.9-1-1.37-3.15-.74-4.79-.69-10.65.32-21.33.3-31.94 1.14-17 1.34-39.9-11.75-47.61-32-7.94-20.84-14-42.25-19.43-63.84-.66-2.62-1.43-5-3.51-7-6.26-5.83-10-4.86-14.54 2.28-4.58 7.3-8.67 14.84-12.92 22.31-1.7 3-1.28 4.54 1.55 6.42 13.85 9.21 22.84 22.07 27.83 37.8 1.62 5.11 3.33 10.13 8 13.44 1 .7 1.73 1.71 1.15 3-.75 1.68-2.18.93-3.46.87-2.68-.14-5.68-3.37-7.71-.82-1.34 1.67-.44 5.11-.59 7.75-1.69 31.78-28.31 58.12-59.95 59.34-32.64 1.35-61.3-22.34-65.17-54.54-2.71-22.77 5.17-41.79 22.8-56.66 1.4-1.18 2.77-2.39 4.16-3.58l.36-.27zm28 79.74-1 1c-.67 1-1.33 2-2 3a14.11 14.11 0 0 0 -4.63 6.06s.31.27.35.24c2.16-1.61 3.14-4 4.24-6.33a5 5 0 0 0 2-3zm96-233.3 1-1 1-1 1-1 1-1 1-1-1 1-1 1-1 1-1 1zm-61 227.32 1 1 1 2 .5.15-.5-.17c-.33-.66-.67-1.32-1-2l-1-1-1-1c-.33-.67-.66-1.33-1-2l-1-1-.88-1.64-.34.2 1.22 1.46 1 1 1 2zm-55-2 1-1 1-2 1-1 .16-.44-.15.45-1 1c-.33.66-.66 1.33-1 2l-1 1-1 1-1 2-1 1-1.7 1.48.56.41 1.12-1.9 1-1 1-2zm377-126.63-1 1-1 1c-.16.63-1.14 1.13-.32 1.92.11-.64.21-1.28.31-1.93l1-1 1-1zm-160 74.82-1 1a5.56 5.56 0 0 0 -2 3l-1 1-1 1a8.93 8.93 0 0 0 -3 4l-1 1-1 1-1 1c-2.55 1.49-5.1 3-7.63 4.48a11.52 11.52 0 0 0 -1.3 1 8 8 0 0 0 1.87-.32c2.76-1.18 5.32-2.65 7-5.22l1-1c.34-.33.67-.67 1-1l1-1a7.49 7.49 0 0 0 3-4l1-1 1-1a5.37 5.37 0 0 0 2-3l1-1zm-161-81.8c.33-.67.67-1.33 1-2l1-2 1-2c.34-.66.67-1.33 1-2l-1 2c-.33.67-.67 1.33-1 2l-1 2c-.33.67-.67 1.33-1 2l-1 2-1 2-1 2c-.33.66-.67 1.32-1 2l-.21.38.19-.39 1-2 1-2 1-2zm297 94.73 1 1v4a3.22 3.22 0 0 0 0-4l-1-1-.4-.14zm-304-97.7 1-2c-.32.66-.65 1.33-1 2zm99 99.71-1-1-5-5-1-1-1-2-1-1-.27-.38.29.37 1 1c.34.66.67 1.32 1 2l1 1 2.84 4.91c-5.14-2.34-7.57-7-9-11.86-9.6-32.49-19-65.05-28.45-97.58-.76-2.61-1.25-5.41 0-7.81 3.92-7.42 5.94-15.92 12.41-21.91.77-.72 2-1.63.56-2.85s-10.21 0-11 1.9c-3.49 7.89-8.39 15.35-9.6 24-.93 6.7-1.79 14 6 18.37 2.81 1.59 3.75 4.85 4.68 8 1.12 3.77-.2 7.64 1 11.34q10.86 35 21.73 69.95c1.81 5.8 5.86 10 10.59 13.53.78.59 1.64 1.46 2.63.58a2.12 2.12 0 0 0 .35-3.11c-.58-.79-1.12-1.61-1.68-2.41h2l1 1 2 1 2 1 .41.18-.39-.21-2-1zm-135 19.93 2 1 3 1-3-1zm-18-23.92.36.18-.33-.21-.5-.14zm44 56.85 1 1 .7 1.74.36-.21-1-1.55-1-1-1-2-1-1c-.33-.67-.67-1.33-1-2l-1-1c-.39-.48 0-1.61-1.18-1.42l1.2 1.4 1 1c.34.66.67 1.33 1 2l1 1zm23-102.74-1 2-1 2c.34-.67.67-1.35 1-2s.66-1.32 1-2zm41-141.56.32-.25-.35.23zm4-21.93-1 2-.14.42c0-.15.07-.3.11-.45l1-2zm307 265.19 1-2a5.06 5.06 0 0 0 2-3c.33-.66.66-1.33 1-2l1-2 1-3 1-2 1-4a8.24 8.24 0 0 0 .5-.8c0-.09 0-.25-.06-.38l-.42 1.2c-.33 1.32-.66 2.65-1 4-.33.67-.66 1.34-1 2l-1 3-1 2-1 2-2 3-1 2-1 1c-.66 1-1.33 2-2 3l-1 1-7 7-1 1c-1.3.72-2.65 1.37-3.89 2.18a60.47 60.47 0 0 1 -39.73 10.15c-26.22-2.3-49.13-23.59-52.61-49.49-.46-3.44-1-6.87-1.47-10.3a45.1 45.1 0 0 0 .35 11.37c0 .33.17.64.23 1 5.58 26.21 24.59 44.67 51.2 48.36 17 2.35 32.77-1.4 45.91-13.25l1-1a14.16 14.16 0 0 0 7-7l1-1a4.92 4.92 0 0 0 2-3c.31-.37.64-.71.99-1.04zm-321-47.83-1-2c-4-17.61-13.23-31.74-28.28-41.92-1-.65-2.28-2.38-3.33-.82-.75 1.11 1.17 1.74 2.05 2.34 12.38 8.45 20.83 19.88 26.11 33.8a55.88 55.88 0 0 0 3.48 6.57c.31.68.63 1.35.97 2.03zm-15-142.59-1 2-1 2-1 2-1 2-1 2c-.33.67-.67 1.33-1 2l1-2 1-2 1-2c.34-.66.67-1.33 1-2s.67-1.33 1-2l1-2 1-1 3-3 1-1a11.88 11.88 0 0 0 1.46-.18c.72-.16 1.43-.4 2.15-.6a21.46 21.46 0 0 0 -2.28.16 5.66 5.66 0 0 0 -1.31.64l-1 1a4 4 0 0 0 -3 3zm-16 30.9 1-2 1-2 1-2 1-2 1-2 1-2 1-2 1-2-1 2-1 2c-.33.66-.67 1.32-1 2l-1 2-1 2c-.33.67-.67 1.33-1 2s-.67 1.33-1 2zm-9 0 1-2a333.72 333.72 0 0 0 19-33.88 5.58 5.58 0 0 0 2-3l-2 3c-8.72 10-13.59 22.08-19 33.88l-1 2-.14.45zm59-15.92.15-.43c0 .14-.11.28-.17.41zm22 97.7-.46-1.16.44 1.17.42 1.17c-.13-.41-.26-.81-.4-1.2zm191-35.87 1 1c-.69 3.3-2.53 4.89-6 4l-.29-1.81-.41.14.72 1.65c1.61 1.7 3.71 3.15 3 6 4.44-2.29 4.43-5.9 3-9.95l-1-1-1.22-.49zm-189 42.85c-.06-.31-.11-.62-.19-.92 0-.11-.15-.19-.22-.28l.43 1.18c.33 1 .67 2 1 3 .05.3.09.62.16.92 0 .1.15.19.23.28l-.41-1.19c-.35-.99-.68-1.99-1-2.99zm221 18v4c-3.09 2.93-6.19 4.76-9.56.31-.39-.52-.44-2.08-1.49-1.3a7.51 7.51 0 0 0 -2.67 3.48c-.44 1.39 1.19 1.16 2.06 1.28 3.36.44 4.59 1.19 1.55 4.31-3.26 3.35-2.19 10.56 1.52 11.43a167.7 167.7 0 0 0 17.15 2.9c2.39.31 4.7-.76 3.25-3.76-1.32-2.71-.85-4.41 1.12-6.57 1.78-1.95 1-4.4-.82-6.23s-2.7.18-3.94 1.12c-2.85 2.17-6.18 1.77-8.88.19s0-3.8.28-5.75a10.91 10.91 0 0 1 .4-1.43c.81-1.38 1.09-2.7.03-4.02zm-299-2c.49-.41 1.51.21 1.65-.85l-1.67.83-.32.26zm24-150.58 2.79-.3c0-.1-.08-.3-.08-.3l-2.69.61zm-48 151.53c.62-.7 1.5-1.25 1.41-2.35 0-.08-.31-.23-.38-.19-1 .57-.75 1.66-1.05 2.52zm-39 19.94c-.26-.17-.52-.36-.79-.5-.1 0-.26 0-.39.05l1.2.43 4 1.47c0-.13.14-.34.09-.38-1.11-1.1-2.72-.73-4.11-1.07zm337-127.65a4.73 4.73 0 0 0 -2.14-3.08c-.09 0-.37.25-.57.39zm-294 65.81a6.93 6.93 0 0 0 -1.3 1.36c-.37.7-1.55 1.27-.58 2.32a17 17 0 0 0 1.31-1.87 9.61 9.61 0 0 0 .58-1.79l2.69-.62-.13-.37zm19 34.9-1-1a13.2 13.2 0 0 0 -1.78-1.73c-1.15-.76-2.34-2.88-3.64-1.58-1.09 1.1-2 4.09-1.34 4.88 1.5 1.8 1.72-1.71 3.26-1.59 1.15.09 2.31 0 3.47 0l1 1c-.4 1.2-1.09 2.42-.15 3.63.11.15 1.07 0 1.23-.28.95-1.43-.38-2.3-1.05-3.33zm-21 8a3.23 3.23 0 0 0 1.73-3.26c0-1.45-.06-2.89-.08-4.34-.16 1.3-.22 2.62-.49 3.9s-.76 2.44-1.16 3.69zm79-208.39c-.76 1-1 2.47-2.48 2.83-.78.19-1.62.12-2.4.29-1.87.41-.81.81.07.69 1.58-.22 3.74 1.07 4.56-1.43a11.11 11.11 0 0 0 .22-2.4 6.93 6.93 0 0 0 .8-1.17c.28-.65 1.23-1.64.42-2s-.77 1-1 1.74a12.78 12.78 0 0 0 -.19 1.45zm-66 178.48c-1.54 1.13-3.53 1.93-3.43 4.3 0 .27.83.82 1 .73 1.88-1.14 2-3.2 2.42-5.06a1.44 1.44 0 0 0 .28-.27.88.88 0 0 0 0-.29zm68-172.53c3.29 1.26 3-2.26 4.43-3.41.79-.61 2.21-1.46 1.17-2.75a3.49 3.49 0 0 0 -3.6-1.19c-1.63.42-1.87 1.76-1.47 3.13a5.51 5.51 0 0 1 -.54 4.25 22.71 22.71 0 0 0 -2.47.25c-.43.09-.33.54.13.46a16.31 16.31 0 0 0 2.35-.74zm16-3c-3.7-2.34-8.12-1.77-10.38 1.44-2 2.84-1.61 5.58.75 8 .42.43 1.21 1 1.65.83 1-.29.21-1 0-1.49-2.02-6.73.26-9.26 7.98-8.77zm-68 146.59c-3.54-2.24-5.7-1.26-7 2.69a50.8 50.8 0 0 1 -2.88 6.29c-.61 1.29-1 2.58.49 3.49 1.83 1.13 2.71-.22 3.46-1.58 2-3.61 3.92-7.25 5.88-10.88zm263-2c.06.3.11.61.19.91 0 .1.14.18.22.27-.14-.38-.29-.77-.43-1.16-.44-2.78-.85-5.57-1.35-8.34-.26-1.49-1.06-2.44-2.77-2-1.4.34-10 9.46-10.15 10.82-.2 2 1.39 2.95 2.68 3.87 1 .69.72-.42.91-1 2.45-6.89 4.8-7.62 10.7-3.38zm-213-134.61a9.13 9.13 0 0 0 -4.73 6c-1.87 6-4.11 11.93-6.14 17.9-.48 1.41-2.47 3.23-.3 4.3s3.11-1.34 3.77-2.93a111.27 111.27 0 0 0 7.4-25.26c.18-.64 1.12-1.14.35-2-.11.69-.24 1.34-.35 1.99zm14-59.8a25 25 0 0 0 -7.41 9.17c-2.15 4.28-3.06 8.73-.68 13.27.36.7.91 1.75 1.45 1.8 1.33.12 1.23-1.23 1.44-2.12 1.75-7.38 3.46-14.76 5.2-22.12zm-95 258.25c-5.22 3.18-3.41 5.71.29 9s3.44 3.66 4.88-.33c.11-.31.28-.81.47-.83 4.3-.48 5.93-2.5 4.8-6.93-.18-.71 2.9-2.46.45-3.62-1.51-.71-4.15-.61-4.6 2.23-.26 1.69-.35 3.44-2.52 3.72-2.39.32-3-1.59-3.8-3.23zm14-41.91q4.38-9.51 8.75-19c.84-1.85 1.84-3.82-.86-5s-3.4 1.09-4.24 2.82c-2.39 4.94-4.53 10-7.15 14.82-2.39 4.32-.85 6.02 3.5 6.36zm56-138.59a49.36 49.36 0 0 0 -5 5.52c-3.55 5.34-1.88 8.5 4.56 9.13 2.5.25 4.91.35 5.25 3.88s3 2.7 4.58 1.3c1.39-1.22 2.76-3.38 2.72-5.09-.07-3.17-2.28-6.19-4.59-7.75s-2.08 2.37-3.28 3.62c-1.6 1.66-3.18 3.16-5.54 2s-2.2-3.39-1.34-5.59 1.74-4.63 2.61-7zm285 84.77c-6.47.39-12.94.77-19.41 1.19-1.57.1-3.27-.28-3.65 2.26-1.79 11.72 2.19 15.76 13.91 13.89.49-.08 1-.21 1.46-.32l2.4-.56c-.77-.09-1.53-.22-2.3-.27-5.28-.35-8.46-3.23-8.57-7.77-.1-4.19 2.9-6.9 8.28-7.55 2.61-.31 5.35.4 7.85-.9 2.8-.09 5.6-.17 8.39-.29.52 0 .49-.4-.06-.38-2.78.07-5.61-.4-8.3.7zm-127 90.74c-1.93 2-5.77 3.71-4.11 6.85 2.11 4 .36 6.32-2 8.72a59.52 59.52 0 0 1 -10.83 8.71c-1.64 1-3.3 2-5 3.06 2.39.84 4.83.44 7.24.18a4.24 4.24 0 0 0 2.16-1.11 8.51 8.51 0 0 1 9.26-1.67c3.54 1.33 4.52.45 4.41-3.54-.19-7.09-1.86-14.09-1.23-21.21l4.11-3.33a2.2 2.2 0 0 0 -.92-.14c-1.69.49-2.52 1.86-3.09 3.48zm-229-3c-1.87.22-4 .32-5-1.42-1.77-3.07-2.46-1.11-3.49.43-4.42 6.63-7.24 14.06-10.65 21.19-1.25 2.61.1 4 2.35 5s4.15 1.45 5.68-1.47c4.11-7.73 8.49-15.31 11.11-23.74zm64 16.94.42.14-.44-.12c-5.47-4.91-8.64-11.24-11.32-17.94a65.18 65.18 0 0 0 -23.17-29.28c-3.74-2.67-6.22-1.54-7 2.86-.41 2.41 1.41 3.17 2.81 4.22 10.87 8.1 19.61 18 25.38 30.28 2.81 5.86 7.09 8.95 13.32 9.84zm-10-1c.06 1.83.15 3.66.18 5.48a59.48 59.48 0 0 1 -69.68 59.64c-26.86-4.46-46.22-25.06-49.2-54-2.3-22.08 10.22-47.32 36.1-58.32 1.48-.63 3.43-.51 4.36-2.25-1.92-.26-3.62.54-5.3 1.18-26.02 9.81-42.16 40.69-35.46 68.41 5.76 23.87 20.54 39.83 44.48 45.73 24.25 6 45.33-.9 61.55-20 11.12-13.07 15.97-28.53 12.97-45.87zm-49 8c1.81-.25 3.61-.17 3.52 2.2-.07 1.63-1.53 2-3 1.72-.84-.15-1.73-.35-2.27.46-3 4.42-7 6.43-12.38 5.48-1.51-.27-1.53 1.5-2.28 2.28a2 2 0 0 1 -2.69.39c-.75-.5-1.3-1.51-.79-2.14 3.31-4.07-1-4-2.79-4.92-5.07-2.68-5.83-4.19-3.53-9.46s4.92-10.51 7.36-15.79c.46-1 1.61-2.14.62-3.13s-2.2.1-3.2.52c-10.17 4.24-16.46 19.36-12.55 30 3.61 9.82 12.52 16.74 21.91 17 11.07.35 20.15-5.27 24.69-15.27 1-2.15-4-11.75-6.28-12a4.83 4.83 0 0 0 -2.4.5c-1.36.62-2.64 1.4-4 2.11zm326-10c6.16-10.25 12.19-20.57 18.54-30.7 4.11-6.56 8.92-7.22 15-2.47a47.54 47.54 0 0 1 5.85 5.41 140.51 140.51 0 0 1 13.4 17.33c3.42 5.16 8.25 7.73 14.43 7.1 7.27-.75 14.5-1.84 21.75-2.81a8.45 8.45 0 0 0 1.52-.5c-.49 0-1-.09-1.49-.09-4.32 0-8.75-.45-13 .28-9.95 1.74-16.16-1.88-21.05-10.77-15.13-27.51-42.1-38.35-72.51-29.87-2.52.7-6.5.8-5.33 4.91 1.27 4.45 4.45 1.24 6.53.61a71.9 71.9 0 0 1 18.1-3.36c6.22-.25 8.2 2.63 6 8.43-3.5 9.14-7.13 18.24-10.75 27.34-.91 2.28-2.43 4.44 1.72 5.28 1.69.34 1.38 2.4 1.26 3.9-1.14 0-2.28 0-3.4-.12-.42-.05-.82-.49-1.2-.8-.86-.7-1.68-.59-1.5.56.25 1.52 1.79 1.2 2.83 1.15a15.77 15.77 0 0 0 3.3-.8zm3.09 36a13.1 13.1 0 0 1 2.26 1.83c5.93 7.54 7.13 7.75 15.29 2.13a40.11 40.11 0 0 0 5-4.14c5.28-5.08 5.26-5.1.75-10.72-4.93-6.15-4-9.76 3.48-12 8.86-2.65 6.66-2.33 5.85-9.51a19.59 19.59 0 0 0 -.66-2.9c-3-10.86-3.89-11.32-14.21-7.44-.47.18-.95.33-1.4.53-3.62 1.57-7.05 2.14-9.86-1.52-.67-.88-1.6-1.52-2.32-.13-1.18 2.29-3.89 4.25-.62 7.29 2.9 2.7 3.64 6.3 1.2 9.92a3.21 3.21 0 0 0 -.55 2.68c.89 5.64-.9 7.72-6.7 7.16s-11.48-1.81-17.24-2.67c-1.93-.29-5-1-5.36 1.1-.9 5-6.41 7.7-6.06 13.09 0 .29.32.57.53.83 3.92 4.83 8.44 8.91 14.24 11.45 2.33 1 4.18.68 5.66-1.43 1.15-1.63 2.21-3.33 3.51-4.84 2.06-2.37 4.41-3.58 7.13-.81-.49.06-1 .12-1.48.2-2.84.41-8.87 5.67-8.09 7.54 1.5 3.61 5.15 1.46 7.82 2.05a14.88 14.88 0 0 0 3 0c2.85 0 3.64-1 2-3.6-1.21-1.97-3.06-3.59-3.17-6.1zm-157.63-132c-3.93-.46-2.86 2-2.15 4 4.89 14.11 9.75 28.23 14.76 42.31a16.85 16.85 0 0 1 -1.46 14.79c-1.34 2.38-4.27 3.51-4.82 6.43 2.8-.21 5.59-.5 8.39-.62 11.71-.49 21.92-3.45 29.81-13.3 9.23-11.52 19.6-22.13 29.42-33.19 8.08-9.1 8.07-10.92 1.69-21.29-2.37-3.84-5.39-4.75-9.66-4.29-21.94 2.29-43.84 5.23-65.98 5.1zm-49.39 108.66c5.82 0 11.68.44 17.45-.08 15.28-1.38 30.66 0 45.9-1.85 11.94-1.46 22.26-5.58 30.15-15.5 20.82-26.16 43.56-50.68 66.57-74.94a29.66 29.66 0 0 1 19.3-9.39c6.62-.63 13.24-1.33 19.88-1.78 2.92-.19 4.8-.76 4.51-4.28s-2.51-3.19-5-2.93c-5.62.61-11.26 1.12-16.89 1.64-11.69 1.09-21.89 5.09-29.86 14.16-21.28 24.25-42.73 48.34-64 72.57a34.64 34.64 0 0 1 -21.38 11.82c-5.41.81-10.94.87-16.43 1.18-13.62.77-27.28 1.1-40.86 2.35a37.89 37.89 0 0 1 -39.64-26.61c-7.57-25.47-15.23-50.91-23.89-76a25.12 25.12 0 0 0 -2.22-5 3.42 3.42 0 0 0 -4-1.32 3 3 0 0 0 -2.36 3.37 18.1 18.1 0 0 0 .75 4.38c8.16 26.33 16.21 52.69 24.59 78.95 5.44 17.04 21.97 30 37.43 29.26zm-75.07-4.63c-.49-3.1.52-7.2-1.32-11-6.24-12.72-14.5-23.83-26.08-32.24-1.21-.88-2.5-2.86-4.25-1.29a6.32 6.32 0 0 0 -1.84 5c.1 2 2 2.43 3.33 3.41 15.58 11.9 22.1 27.62 18.66 46.83-4.09 22.83-26.39 40.22-52.4 37.44-17.87-1.92-34.78-15.14-40.24-32.76s.48-37.73 14.53-49.12a50.67 50.67 0 0 1 17.44-9.45c2.69-.8 5.84-7.55 4.4-10-1.85-3.17-4.76-1.1-7.08-.38-22.53 7-40.94 29.4-40.15 56.33a57.58 57.58 0 0 0 58.84 55.59c31.76-.36 56.16-25.98 56.16-58.36zm19.43-158.23h-15.43c-3.81 0-7 1.54-8.75 4.81-7.94 14.77-15.7 29.63-23.49 44.47-.49.95-1.42 2.13.13 3 2.68 1.51 4.52 4 7.79 5 7 2 13.9 4.55 20.77 7.06 5.8 2.12 10 5.74 11 12.34.26 1.87.37 4.33 3.52 3.39 2.68-.79 3.17-2.53 2.27-5-2.07-5.71-3.17-11.63-7.39-16.62-5.05-6-4-12.26 2.06-16.71 2.32-1.71 2.11-3.63 1.64-5.68-1.71-7.46-.47-14.46 2.78-21.27 1.93-4 3.65-8.18 5.46-12.28.97-2.42.45-3.59-2.36-2.51zm317.45 160.65c0-1 0-2 0-3a22.24 22.24 0 0 0 -5.7-15.77c-6.3-7.24-11.2-15.68-18.47-22.18-2.45-2.19-5.06-3.82-8.52-3.22a2.48 2.48 0 0 0 -1.62.89c-.38.68.35 1.16.9 1.51.83.55 1.72 1 2.55 1.57a47.78 47.78 0 0 1 19.46 52.92c-5.77 20.15-24.37 34.18-45.76 34.52-19.92.32-38.77-13-45.21-32.39-1.37-4.12-3.12-6.76-7.65-7a4.13 4.13 0 0 1 -3.08-1.44 26.78 26.78 0 0 1 -1.58-2.35c0 1 0 2 .05 3a18.72 18.72 0 0 0 .21 2.48c5.11 30.06 32.14 50.28 63.48 47.48 28.42-2.5 50.97-27.75 50.94-57.02zm-54.65 45.12c5.3-.07 12.93-2 20-6 29.57-16.49 30.73-60.25 2.09-78-2.53-1.57-4.38-2.29-6.61.88-2.54 3.62-.94 4.79 2 6.75 12.57 8.31 18.86 20.22 17.19 35.18s-9.93 25.59-24.16 30.86c-14.47 5.35-27.46 2.12-38.74-8.21a38.2 38.2 0 0 1 -8.87-13.1c-1.66-3.75-5.6-4.3-8.48-3.15s-.34 4.1.41 6c6.94 17.44 23.68 28.76 45.17 28.79zm-65.07-166.29-7.76.84c-2.54.29-3.68.55-1.26 3.29 3.64 4.11 6 9.15 8.07 14.24 1.85 4.61 1.73 9.33-1.59 13.18-13.55 15.73-26.62 31.97-41.23 46.68a18.63 18.63 0 0 1 -13.75 6c-8.44 0-16.33 1.08-21.23 9.73-2.44 4.32-2.75 8.69-3.59 13.22-.79 4.21 1.2 4.56 4.34 4.13a35.58 35.58 0 0 0 22.84-12.1c20.58-23.5 41.41-46.78 62-70.28 4.68-5.36 9.8-9.88 16.39-12.68.71-.3 1.92-.92 1.87-1.27-.13-1.08-1.28-.64-2-.74-6.69-.87-12-4.08-15.4-9.84-2.25-3.63-4.75-5.51-7.7-4.4zm-24.84 7.81c2.46-.15 5.65-.19 7.53 2.67a57.49 57.49 0 0 1 5.8 10.41 10.45 10.45 0 0 1 -2.17 11.17q-19.19 21.32-38.48 42.55c-4.21 4.62-9.71 6.81-15.9 7.47-5.12.54-10.23 1.22-15.34 1.85-.49.06-1 .19-1.45.28a5.8 5.8 0 0 0 1.6.31c6.63-.61 13.25-1.85 19.86-1.77 10 .1 17.43-3.84 23.74-11.33 10.91-13 22.23-25.6 33.33-38.41 1.51-1.74 3.28-3.39 3.75-5.79 1.64-8.42-3.32-14.61-7.4-21-2.85-4.46-7.64-4.29-12.17-3.91q-35.28 3-70.57 6.06c-1.57.13-3.39.48-3.35 2.24s2.05 2 3.5 2.05a131.94 131.94 0 0 0 20.94-.34c15.46-1.54 30.8-2.97 46.78-4.51zm-60.9-8.91c6.92-.65 13.87-1.38 20.83-1.95 25-2.05 50.07-4 75.09-6.12 2.24-.18 6.13.58 5.93-2.4a7.77 7.77 0 0 0 -6.22-7 21.73 21.73 0 0 0 -7.95.29 89.53 89.53 0 0 1 -9.85 1.53q-35.87 2.15-71.74 4.08c-3.61.2-7 .93-9.49 3.71-1.56 1.74-3.2 3.88-2.38 6.24.96 2.74 3.78 1.11 5.78 1.62zm106.58-9.85c5.17.19 7.34-3.24 4.9-7.9a33.08 33.08 0 0 0 -5.45-7.72c-4.52-4.68-6.06-5-11.69-1.81-5.13 2.89-10.41 5.26-16.39 5.58-25.26 1.37-50.52 2.77-75.78 4-10.22.51-15.22 4.67-17.46 14.66-.64 2.86-.09 4 3 4 2.82 0 4.07-1.16 4.71-4 1.41-6.13 5.44-9.6 11.47-9.95 13.28-.79 26.6-1.13 39.86-2.16 14.91-1.15 29.95-.9 44.7-3.88 8.05-1.63 10-.68 14.56 6.13.86 1.35 1.26 3.29 3.57 3.05zm-295.2 176.37c5.07.42 10.74-.92 16.16-3.16 16.46-6.83 26.33-19.2 28.49-36.72 2-16.37-4.39-29.88-17.17-40.3-1.25-1-3.06-3.45-4.51-1.78-1.59 1.83 1.18 2.9 2.41 4.08.36.34.78.62 1.16.94 14.75 12.68 19.34 33.06 11.31 50.22-8.26 17.65-26.74 27.56-45.95 24.08-16.45-3-27.84-12.62-33-28.45-5.07-15.51-2.11-29.81 9.08-42.1a44.59 44.59 0 0 1 16.85-11.28c1.27-.51 2.8-1.27 2.22-2.8-.73-1.91-2.31-.5-3.4-.14-18.15 6-31.31 22.53-31 43.13.38 25.27 20.95 44.38 47.35 44.28zm74.71-123.75c-4 .54-4.4 2.53-3.52 5.75 4.79 17.64 9.63 35.27 16.42 52.26 6.19 15.49 17.71 25.4 33.74 30.1 1.71.5 3.76 1.38 4.53-1.25.66-2.27-.76-3.23-2.76-3.89-17.14-5.67-27-17.88-31.89-34.84-4.3-14.82-9.14-29.5-13.81-44.22-.5-1.6-.51-3.82-2.71-3.91zm239.07 81c4.43-.81-.63-7 2.89-9a1.37 1.37 0 0 0 -.23-2.44 9.65 9.65 0 0 0 -2.44-.4c-4.92-.83-9.84-1.62-14.75-2.5-11.13-2-22.26-4-33.36-6.1-4.84-.93-6.29 2-7 5.69-.67 3.31.67 5.4 4.34 5.75 2.48.24 4.92.8 7.37 1.28 13.82 2.76 27.66 5.57 43.18 7.71zm95.84-20.15h6.92a21.31 21.31 0 0 0 2.24-.25 17.12 17.12 0 0 0 -2.47-.19c-8.51.48-15.3-1.84-19.13-10.32-15.46-34.24-50.78-44.93-81.77-35.24-1.77.55-4.42.9-3.61 3.75.84 3 3.15 2.79 5.65 2a65.35 65.35 0 0 1 22.15-3.09c23.87.83 41.38 12.51 52.78 33 4.22 7.58 9.05 12.21 17.24 10.34zm-408-50.32c-14.36.33-28.13 2.91-40.34 11.07-1 .7-3.06 1.29-2.5 2.64s2.33.23 3.54 0c7-1.52 13.62-4.58 20.81-5.2s9.18 1.74 8 8.7c-.72 4.26-1.28 8.55-2.25 12.75-.87 3.72 1.52 5.46 4.07 6.47 2.86 1.13 2.86-2.06 3.57-3.6 3.33-7.23 7.1-14.28 9.15-22.06a9.51 9.51 0 0 1 7-7.12c.93-.25 2.31-.29 2.26-1.53s-1.46-1.06-2.38-1.16c-3.59-.45-7.19-1.26-10.91-.96zm265 41.19c3.91.16 4.35 0 6.1-3 5.22-8.94 11.26-17.21 19.55-23.59 2.17-1.67 2.59-3.67.9-5.5-2.19-2.37-2.22-4.44-.71-7.12 1-1.8.31-3.38-1.63-4.54s-3-.68-4.19.91c-7 9.26-14.13 18.48-18.92 29.12a10.31 10.31 0 0 1 -7 6.32 60.49 60.49 0 0 0 -8.22 3.52c-.86.41-2.07 1.06-1.87 2.09.22 1.23 1.61.84 2.54.87 4.68.16 9.34.05 13.46.92zm-127.21 21.13c15.45-1 30.89-2 46.34-2.88 2.84-.16 4.17-1.14 4.4-4.09.5-6.51 1.59-12.86 6.78-17.67.87-.81 2.52-2 1.64-3.27s-2.81-.54-4.24-.29c-1.76.31-2.75 1.81-3.8 3.08-2.22 2.69-4.3 5.5-6.56 8.16-4.35 5.12-9 10.38-16.1 10.95-14.56 1.17-29.21 2.67-43.6-1.59-1.57-.47-3-.9-3.73 1s.83 2.3 2 2.86c5.32 2.6 10.86 4.22 16.87 3.74zm150.79-116.1a37.15 37.15 0 0 1 -5.44.72c-4.21 0-3.22 1.68-1.67 4.11 5.67 8.94 14.59 11 23.9 9.76 11.07-1.52 22.35-1.22 33.29-4.74 6.13-2 13.17-1.08 19.8-1.52 1.11-.07 2.21-.33 3.32-.5-.77-1.59-2.29-.95-3.44-1-17.44-.72-34.9.22-52.34-.77-4.39-.25-8.23-.78-11-4.54-1.42-1.9-3.42-1.64-6.42-1.52zm-43.28 92.57a8.9 8.9 0 0 0 1.18-.72c3.87-3.32 8.58-5 13.24-6.76a6 6 0 0 0 3.74-3.05c5.18-11.41 12.51-21.46 20.2-31.27 1.13-1.45 1.78-2.71.14-4.3-1.83-1.75-2.94-.56-4.12.72-3.71 4-7.44 8-11.1 12.11-7.77 8.64-15.44 17.37-23.3 25.92a5 5 0 0 0 -1 5.84c.19.57.03 1.34 1.01 1.51zm5.81-95.72c-1.19.08-2.68.17-4.17.29-19.34 1.58-38.68 3.13-58 4.77-2.7.23-7.24-.95-7.13 2.91.11 4.36 4.72 2.56 7.31 2.36 19.36-1.51 38.7-3.23 58-5 2.92-.27 6.07-.4 8.21-3a6.63 6.63 0 0 0 .78-1.68 6.81 6.81 0 0 0 -1.72-.65 31.81 31.81 0 0 0 -3.29 0zm-231.29 17.7c1.59-.77 2.15-2.38 2.89-3.79 6.93-13.08 13.87-26.14 20.72-39.25 3.09-5.91 5.66-12.18 13.14-14 1.87-.46 2-2.18 1.57-3.68-.52-2-2.15-1.75-3.66-1.34a11 11 0 0 0 -6.75 5.55c-2.42 4.17-4.85 8.34-7.2 12.55-7.22 12.91-14.39 25.84-21.62 38.75-1.08 1.91-1.52 3.65.91 5.21zm297.76 86.48c4.29-.24 6.78-4.09 5-8.1-2.33-5.14-5-10.13-7.42-15.22-1.31-2.71-3.34-3.88-6-2.3-2.53 1.49-5.42 3.07-3.38 7 2.76 5.3 5.37 10.68 8 16 .8 1.61 1.8 2.85 3.8 2.62zm-341.47 37.13c-.52.25-.82.38-1.1.55-7.15 4.18-7.68 12-1.14 16.75l.81.57c1.95 1.28 4.11 3 6.33 1.38 3.21-2.34 5.37-5.73 7.22-9.23.13-.24-.55-1.2-1-1.42a30.11 30.11 0 0 1 -9.65-7.66 6.33 6.33 0 0 0 -1.47-.94zm-18.35-23.15c.16.7.08 1.79.57 2.22 3.27 2.87 7.55 3.42 11.52 3.69 2.64.18 1.54-3.43 2.38-5.22.62-1.33.62-3 1.44-4.18 3-4.28 1.59-6.37-3.12-7.31-1.61-.32-3.1-1.17-4.7-1.51s-3.36-.21-4.36 1.51a31.92 31.92 0 0 0 -3.73 10.8zm15.4 18.43c0-5.63-9.11-12.1-13.87-10.57a2.91 2.91 0 0 0 -2.08 3.48 39.22 39.22 0 0 0 5.29 16.4c.72 1.15 1.81 2.65 3.08 1.33 3.2-3.31 6.1-6.91 7.58-10.64zm184.9-7v1.16c-8.78 0-17.56 0-26.34 0-2 0-4.81-.71-4.81 2.67s2.84 2.66 4.81 2.61c9.12-.27 18.23-.64 27.34-1 2.64-.12 5.27-.56 7.92-.73 2.06-.13 3.81-.77 3.61-3.09s-2.22-1.53-3.58-1.58c-2.97-.14-5.96-.07-8.95-.07zm-160.82 36.5c3-.07 6 .08 8.87-.9 1.3-.44 2.6-.72 2.54-2.49-.09-2.21-6.6-9.95-8.81-10.12-3.43-.26-7.14-.94-9.2 3-1.4 2.72-5.51 5.22-4 8 1.83 3.24 6.47 2.39 10.07 2.52.19 0 .36-.01.53-.01zm29.34-13.78a17.7 17.7 0 0 0 -6.38-9.06c-2.42-1.9-3.37 2.12-5.27 3.08s-3.82 2.63-5.86 3.69c-2.2 1.14-2.39 2.45-1 4.32.88 1.2 1.61 2.51 2.53 3.67 1.58 2 2.82 5 6.21 3.23 4-2.17 8.18-4.31 9.77-8.93zm275.41-71.21c-.23-1.32-1.56-1.47-2.47-2.11-1.74-1.23-3-.39-4.39.77a74.8 74.8 0 0 0 -18.19 22.71c-.69 1.33-2.91 3.19-.36 4.53 2.16 1.13 4.25.85 5.71-1.93a66.58 66.58 0 0 1 18-21.53 3.49 3.49 0 0 0 1.67-2.44zm-61.13 21.69c-3.62.26-6.23 1.67-6.69 5.1a5.53 5.53 0 0 0 4.59 6.62c4.51 1 9.08 1.69 13.64 2.44 1.46.25 2.75-.19 2.86-1.9a17.83 17.83 0 0 1 1.9-7.11c.76-1.5-.17-2.07-1.51-2.32zm-255.44-7.54c-.13-1.65-.24-3.31-.39-5-.18-1.94-1.06-2.63-3-1.81a41.24 41.24 0 0 0 -14.59 10.23c-1.07 1.16-1.37 2.75.16 3.33 4.09 1.57 8.18 4.5 12.71 2.87 4.17-1.51 6.03-5.05 5.11-9.62zm311.39-20.3a10 10 0 0 0 -2-2.47c-1.7-1.1-2.75.52-3.81 1.43a79.53 79.53 0 0 0 -20.56 27.26c-.66 1.43-2.76 3.38-.2 4.67 2.4 1.21 3.5-.92 4.43-2.78a79.6 79.6 0 0 1 20.06-25.18c.85-.73 1.96-1.3 2.08-2.93zm3.77 59.91c2.86-1.14 6.24-2.47 9.59-3.86.66-.28 1.82-.4 1.43-1.51-.14-.4-1.09-.63-1.7-.73-8.65-1.41-17.3-2.82-26-4.15-1.62-.25-3.86-1.36-4 1.79-.13 2.4 0 4.94 2.93 5.51 5.75 1.09 11.45 1.92 17.75 2.95zm-262.9-5.09c.29-3.45-.54-4.16-3.93-2.95-3.86 1.37-6.34 4.78-9.58 7.09-2.1 1.5-2.35 4.56-.09 7a36.85 36.85 0 0 1 3.5 4.81c2.12 3.2 3.79 2.45 5.39-.45a35.52 35.52 0 0 0 4.71-15.5zm-.85-178.83v14.38c0 .88 0 3.09 1.52 1.35 2.13-2.39 4.81-4.79 4.87-8.4.12-6.77 0-13.55.08-20.33 0-2.07-.59-3.5-3-3.57-2.67-.08-3.48 1.3-3.46 3.68.03 4.3 0 8.59-.01 12.89zm172.45 183.75v-.13c-5.49 0-11 0-16.48 0-1.45 0-3.4 0-3.43 2 0 1.88 1.89 1.32 3.07 1.68 4.3 1.31 8.56 0 12.84-.06 7.42-.17 14.85.08 22.28.09 2.32 0 4.69.14 6.8-1.16a4.12 4.12 0 0 0 1.74-5.61c-1-1.78-2.46.54-3.65 1.05a23.8 23.8 0 0 1 -9.68 2.12c-4.49-.01-8.99.02-13.49.02zm-11.81-2.44c11.82-.32 20.67-6.42 28.41-14.63 1-1.07 2.22-2.64.83-3.9s-2.78.28-3.68 1.34c-5.77 6.81-13.51 9.95-21.9 11.92-1.46.34-3 .44-4.38.91-1.71.57-4.76 0-4.41 2.82.3 2.37 2.93 1.38 4.63 1.57a4.32 4.32 0 0 0 .5-.03zm99.44-22c3.89-.1 12.59-8.7 12.17-12.4-.27-2.41-1.13-5.23-3.45-6.23-1.8-.77-3 1.67-4.17 2.93a45.37 45.37 0 0 0 -7.55 11c-2.11 4.15-1.64 4.82 3 4.7zm-261.91-65c1.49-5.08 7.44-4.05 9.9-8 .51-.82 1-1.9.25-2.76s-2.26-.71-3.28-.34c-3.92 1.4-7.43.57-10.88-1.47-1.38-.82-3.18-1.93-4.14.4s-3.85 5.05-1.85 7.07c2.3 2.25 6.02 3.15 10 5.1zm252.58 64c1.55.34 2.89-.8 3.81-2.89a46.61 46.61 0 0 1 11.19-15.72c1.49-1.37 2.45-3 .77-4.7s-2.78.06-3.83.9a64.16 64.16 0 0 0 -15.1 18.41c-1.59 2.73.02 3.45 3.16 4zm-220.55-148.46c6.67-1.3 14.13-1.05 21.58-1.14 1.06 0 2.56.41 2.87-1.16.2-1.07-.91-1.67-1.64-2.32a5.69 5.69 0 0 0 -3.95-1.85q-11.66.39-23.3.87c-1.5.06-2.58.7-2.49 2.41a2.69 2.69 0 0 0 2.25 2.85c1.3.21 2.64.2 4.68.34zm267.13 119.13c-3.75-.33-6.83.47-9.9 1.16-5.52 1.23-6 2.56-3.13 7.39 1 1.68 2 2.33 4 1.88a49.24 49.24 0 0 1 8.32-1.35c4.85-.25 4.95-4.46 5.22-7.2.34-3.25-3.27-1.34-4.51-1.88zm17.05 14.41c-1.2-.25-1.86.47-2.41 1.35-1.5 2.38-3.05 4.75-3.5 7.62-.57 3.55 1.63 6 5.09 5.14a99.64 99.64 0 0 0 10.35-3.57c.88-.32 1.89-.71 1.4-2.12-.56-1.7-9.04-8.3-10.93-8.42zm-326.3 9.15c-.06-1.45.73-2.8-.86-2.88-.91 0-1.07 1.15-1.16 2-.42 3.65.21 7.88-5.3 8.42-.92.09-.87 1.17-.68 2.07a85.57 85.57 0 0 1 1.84 9.71c.31 3.34 2.23 5 5 6.15.9.37 1.87 1.13 2.81.46 1.13-.8.9-2.12.47-3.19-3.05-7.59-4.36-15.29-2.12-22.74zm333.35-85.47v-.11a55 55 0 0 0 -6.93.48c-2.22.43-4.22 1.71-3.83 4.37a4.07 4.07 0 0 0 4.63 3.61c4.14-.24 8.27-.6 12.38-1.13 2.13-.28 3-1.9 2.9-4a3.15 3.15 0 0 0 -3.17-3.2c-1.99-.12-3.99-.02-5.98-.02zm-320.85 101.45a28.93 28.93 0 0 0 -2.52-9.59c-1-2.33-2.1-4.73-5.44-3.61s-3.1 4-2.68 6.55a55.45 55.45 0 0 0 2.2 7.07c.58 1.86.65 4.22 3.69 3.23 2.37-.76 5.04-1.23 4.75-3.65zm332-91.92c1.38-.28 3.35-.61 5.26-1.11 4.56-1.19 5.29-4.48 4.6-8.52s-3.6-3.51-6.5-3.1c-1.48.21-3 .1-4.48.21-.76.06-1.85-.33-2.09.72-.08.37.71 1 1.15 1.42 2.58 2.63 3.15 5.38.49 8.31-.62.67-1.34 1.25-2 1.88zm-186.6 101.22v-.18a65.62 65.62 0 0 0 -6.89.71c-3.66.75-3.29 4.11-3.86 6.72a2.21 2.21 0 0 0 2 2.91c3.42.22 6.85.22 10.27.25.64 0 1.47-.23 1.43-1s-.93-.66-1.54-.63c-1.92.09-3.73-.06-4.42-2.27a2.54 2.54 0 0 1 1.24-3c1.82-1.26 3.44-.75 4.86.73.74.78 1.43 1.42 2.45.4a4.11 4.11 0 0 0 1.1-3.18c0-1.38-1.1-1.46-2.11-1.48-1.55 0-3.04.02-4.53.02zm-147.49-174.94c0-5.14 0-10.28 0-15.42 0-.78.18-1.93-.83-2.1-1.39-.22-1.43 1.08-1.58 2a100.08 100.08 0 0 0 .08 31.19c.12.82.25 2 1.16 2 1.42 0 1.16-1.34 1.17-2.23.02-5.15 0-10.29 0-15.44zm-25.61 123.24c-.4.28-1.12.52-1.42 1-3.6 6-6.25 12.43-9 18.8-.52 1.21.33 2.26 1.52 2.76a1.89 1.89 0 0 0 2.5-1.06c3-5.92 5.94-11.84 8.7-17.86.72-1.58.27-3.32-2.3-3.64zm326.62.33c1-.63 4.65 2.06 4.67-1.88 0-3.79-3.56-2.65-5.8-2.63a52.2 52.2 0 0 0 -15.6 2.78c-1.45.47-3.75.58-3 3 .67 2.12 2.56 1.68 4.21 1.2a73.82 73.82 0 0 1 15.52-2.47zm34 55.16c0-2.14-.12-3.92-2.35-3.14-3.18 1.1-7.78.44-8.12 5.61-.11 1.8 5.06 8.6 5.88 8 3.62-2.77 3.58-7.13 4.62-10.47zm-78.75-136.08c-9 1.44-18.08 2.33-27.2 2.87a8.2 8.2 0 0 0 -5.64 2.89c-.41.47-1.09.94-.6 1.62.16.22 1 .21 1.34 0 6.34-3.69 13.45-2.77 20.3-3.42 4-.38 7.93-.71 11.89-1.14 1-.11 2.13-.59 2.13-1.72-.05-1.39-1.22-1.32-2.22-1.1zm-246.76-50.16v7.41c0 .92-.43 2.27.7 2.61 1.29.39 2-1 2.62-1.84 1.73-2.22 1.68-14.54 0-16.81-.6-.82-1.33-1.65-2.42-1.32s-.89 1.62-.91 2.54c-.02 2.47.02 4.94.01 7.41zm-34.14 120.39c-2.12.86-2.39 3.09-2.51 5.15-.25 4.44 4.13 4.61 6.47 5.15s3.66-2.84 4.27-5.28c.28-1.13-6.16-5.14-8.23-5.02zm-13.54 63.42c-1.77-.32-4-.76-4.28 1.26s2.32 2.19 3.76 2.32c4.1.38 6.89-1.79 8.67-5.37s.43-6.41-1.88-9.06a2.23 2.23 0 0 0 -1.69-.74c-1.07.19-1 1.22-.81 2a21 21 0 0 0 .91 2.82c1.7 4.78.12 7.01-4.68 6.77zm13.49-35.11c-.3 6.09 2.56 9.47 6.36 8.66 1.27-.27 2.78-.42 1.09-2.37a10.27 10.27 0 0 1 -2.86-6.63c0-1.93 1.09-5.17-1.84-5.31-3.13-.14-2.4 3.22-2.74 5.35-.06.48-.01.98-.01.3zm299.64-66.76c-3.31.66-7.1 1.23-10.5 3.12-1.09.6-1.9 1.38-1.35 2.79.62 1.59 1.67 1.21 2.83.7 3.27-1.43 6.83-1.21 10.25-1.81 1.24-.21 3.5.06 3-2.3-.44-1.78-1.81-2.8-4.23-2.5zm-74.6 92.35a9.89 9.89 0 0 0 .53 3.2c1.09 2.05 3.46 1.52 5.28 2.1.46.14 1.16-.4.77-.8-3.48-3.62-.44-3.23 2-3.59 1.24-.18 1.19-1.67.72-2.46-1.72-2.93-4.91-2.52-7.55-2.56-2.43-.06-1.39 2.43-1.75 4.08zm-124.28-205.61c1.3 0 3-1.15 2.93-4.09 0-2.7-1.25-4.45-4.11-4.49s-4.24 1.5-4.39 4.25 1.27 4.28 5.57 4.33zm-15.6-40.08c0 1-.58 2.09.4 2.39s1.26-.89 1.44-1.61q2.83-11 5.54-22.11c.17-.69.46-1.81-.73-1.94-.33 0-1 .84-1.12 1.39-1.9 7.35-3.74 14.73-5.53 21.88zm-58.11 158.34a18.3 18.3 0 0 0 4.43-1.11c2.12-1.07 6.39.58 6.23-2.12s-4.53-2.53-7.11-3.37c-3.21-1-3.2 2.76-5.08 3.83-.64.36-1.6.88-1 1.9.43.81 1.28.94 2.53.87zm287.27-6.36c-1.62.2-3.61.34-5.55.73-1 .2-3-.18-2.72 1.32.22 1.35 1.59-.33 2.5-.06 1.23.37 1.63 1.25 1 2.23s-.25 1.71.67 1.24c2.28-1.19 6.92 3 7.06-3.05 0-.67 1-.62 1.58-.86.85-.36.93 2.13 1.68.43.32-.72-.52-1.61-1.41-1.72-1.46-.17-2.96-.15-4.81-.24zm1.63 70.68c.51 2.38-1.09 6.45 2.62 6.38 2.83-.05 2.09-4 2-6.3s.73-6-2.51-5.91c-3 .07-1.52 3.73-2.11 5.83zm-225.43-194.38c-2.38 0-4.19.65-4.28 3.21a4.29 4.29 0 0 0 4.64 4.68c3-.1 3.07-3.69 3.53-5.63.54-2.2-2.46-1.74-3.89-2.26zm-35.63 112.8c.3-3 1.5-5.25 4.4-6.09s4.87.51 6.3 2.79a42.57 42.57 0 0 1 1.89 4 7.65 7.65 0 0 0 .85 1.16c.09-.3.3-.63.25-.9-.63-3.19-2-6-4.81-7.79-2.45-1.55-5-1.81-7.43 0a7.26 7.26 0 0 0 -2.73 8.38c.49 1.62.59 3.57 2.43 4.51-.25-1.42-.5-2.85-.76-4.27-.12-.59-.27-1.23-.39-1.79zm-1.85-72.85a2.61 2.61 0 0 0 0 .91c.22 1.2-.69 3.24 1 3.35 1.28.08 1.66-2.21 1.4-3.26-1.5-6.07 2.45-11.15 2.82-16.85.05-.79.05-1.59.08-2.38-1.09.13-1.12 1.11-1.41 1.82a47.53 47.53 0 0 0 -3.89 16.41zm16.76-44.19c1.9 0 6.71-6.91 6.09-8.28a2.28 2.28 0 0 0 -1.49-1 3.18 3.18 0 0 0 -3.7 1.85c-1 2.21-2.46 4.31-2.22 6.87.03.26 1.09.46 1.32.56zm220.81 178.08c1.36.17 8.85-6.38 8.71-7.6a1.27 1.27 0 0 0 -2.11-1 28.56 28.56 0 0 0 -7.36 6.45c-.73.93-.43 1.82.76 2.15zm5.76-13a1.3 1.3 0 0 0 -2.18-.47c-2.39 2.05-4.72 4.19-6.94 6.42-.79.8-.75 1.89.67 2.21s8.68-6.19 8.45-8.12zm-2.94-3.9a1.18 1.18 0 0 0 -2-.79 81.19 81.19 0 0 0 -7.39 6.48c-.88.87-.21 1.88 1.05 2s8.27-5.88 8.34-7.65zm-10.27 3a30.5 30.5 0 0 0 7.84-7 1.17 1.17 0 0 0 -1.48-1.68 21.21 21.21 0 0 0 -7.79 6.69c-.73.96-.23 1.85 1.43 1.99zm-38.33 38.55h-5.45c-.33 0-.65.06-1 .09a3.09 3.09 0 0 0 .94.54c4.86.92 9.72 1.83 14.6 2.64a1.91 1.91 0 0 0 1.57-.86c.5-1.14-.56-1.31-1.33-1.53-3.04-.85-6.21-.74-9.33-.88zm-264.24-2.23a4.28 4.28 0 0 0 4-2.73c1.26-2.67 2.67-5.26 3.93-7.93.29-.62 1.08-1.34.21-2.13a16.74 16.74 0 0 0 -1.5 1.79c-2 3.22-2 8.35-7.83 8-.72-.05-1.12 1.14-1 2 .2 1.04 1.02 1.13 2.19 1zm185-89c.86-.57 3.4.9 3.16-2.05-.21-2.59-2.33-2.43-4.13-2.35-1.52.07-3.79-.48-3.61 2.1s2.35 2.34 4.59 2.32zm133.4 125.22c-.09-1.32-.84-1.73-1.68-1.34-2.08 1-5.35.61-5.47 3.94 0 1.31.72 3.63 2.4 3.13 2.71-.76 3.65-3.54 4.76-5.71zm-236.43-185.06c2.16 0 3.56-1.13 3.57-3.17 0-1.88-1.76-2.06-3.28-2.08-1.75 0-3.36.26-3.44 2.48s1.28 2.79 3.15 2.77zm241.57 155.79c-1.87-.92-1.77-4.27-4.23-4.55-1.68-.19-3.67 2.08-3.37 3.58.48 2.34 3.41 1.95 5.33 2.63.92.33 2 .24 2.27-1.66zm-242.68-143.53c6.19.27 12.26-1.31 18.43-1.22a7.57 7.57 0 0 0 1.65-.34 18.86 18.86 0 0 0 -2-.15q-13 .48-25.91 1a8.73 8.73 0 0 0 -1.42.29 8.29 8.29 0 0 0 1.73.39c2.53.06 5.02.03 7.52.03zm331.15 135.79a2.52 2.52 0 0 0 -2.76-2.73c-1 0-2.28 0-2 1.39.32 1.83 1.31 3.48 3.44 3.56 1.2.04 1.31-1.19 1.32-2.22zm-327.42-180.06c-1.46 1.3-1.73 3.36-1.88 5.44 0 .76 0 2 1.17 1.38 2-1.17 2.23-3.47 2.64-5.51.19-.95-.47-1.47-1.93-1.31zm232.77 192.74c1-.16 2.75.21 2.51-.79-.49-2-2.84-1.68-4.43-2.25-1.11-.4-2.21.22-2 1.34.44 2.33 2.62 1.23 3.92 1.7zm-311.31 15.76c1-.13 1.84-.49 1.92-1.73a2 2 0 0 0 -2-2.36 1.84 1.84 0 0 0 -2 1.72c-.2 1.42.67 2.1 2.08 2.37zm25-61.6c-2.48 1.29.11 3.49-.6 5.11-.17.37-.24 1.74.11 1.36a13.34 13.34 0 0 0 2.62-4.61c.45-1.11-.82-1.57-2.08-1.86zm66.38-151.06c.69-1.24 2.86-2 2-4.31-.25-.68-.59-2.18-1.4-1.54-1.64 1.29-1.36 3.57-1.83 5.45-.12.6.38.76 1.23.4zm66.85 197.94 5.66-.47c-2 0-3.9-.13-5.85-.1-1.8 0-3.6.16-5.4.24zm-149.33-38.13c0-.67-.21-1.85-.86-1.29-.91.79-1.31 2.22-1.83 3.42-.27.62-.19 1.59.76 1.15 1.28-.59 1.52-2.07 1.93-3.28zm78.31-83.87c.88 0 1.74-.15 1.79-1.16s-1-1.09-1.75-1.13-1.84-.19-1.81 1c.02.88.96 1.16 1.77 1.28zm249.17 105a25.7 25.7 0 0 0 1.1-3.1c.16-.74-.43-1.31-1.14-.87-1.16.72-.76 2-.78 3.12 0 .38-.18 1.07.82.87zm-317-10c-.12-.88-.68-1.47-1.57-1.28a2 2 0 0 0 -1.24 1.15c-.3 1 .46 1.49 1.3 1.59s1.38-.59 1.53-1.48zm289.16-6.93a37.33 37.33 0 0 0 3.43-3.16c.4-.45-.39-.84-.8-.52a26 26 0 0 0 -3.69 3.24c-.44.51.29.64 1.08.42zm-64.53 15.27a3 3 0 0 0 -1.89 2.31c0 .24.63.87.89.83 1.15-.17 1.56-1.11 1.67-2.11.05-.35-.37-.72-.65-1.05zm-173.32-183.3c0-.73-.22-1.4-1-1.53s-1.12.54-1.27 1.22 0 1.38.87 1.45a1.23 1.23 0 0 0 1.4-1.14zm-43.18 151.65c-.69-.06-1.42.07-1.34.91s.86 1.28 1.69 1.45 1.36-.11 1.32-.91c-.04-.95-.87-1.19-1.67-1.45zm202.33 69.92c.3-.94-.17-1.22-.66-1.19a9.54 9.54 0 0 0 -2.78.48c-.51.2-.3.91.26.93a28.87 28.87 0 0 0 3.18-.22zm108.19-103.17c-.33-.46.34-1.6-.92-1.62-.19 0-.57 1-.56 1.58s.35 1.5.64 1.53c.87.11.7-.76.84-1.49zm-92.89 70-3.31.27c.89.06 1.78.18 2.67.18 1.14 0 2.27-.08 3.4-.13zm-163.06-186.27a6.52 6.52 0 0 0 -1.51-.78 1 1 0 0 0 -1.33 1c0 .84.72.93 1.37.93s1.29-.07 1.47-1.15zm104.59 222.12a1.14 1.14 0 0 0 -1.47-.85c-.37.1-.89.56-.91.89 0 .72.54 1.13 1.25 1.13a1 1 0 0 0 1.13-1.17zm-120.36-182.93 2.29-.5a17.45 17.45 0 0 0 -1.91 0c-1 .07-2 .22-3.06.34zm16.2-45c.14.29.27 1 .56 1 .93.26 1-.56 1-1.15 0-.42-.21-1.14-.47-1.2-.93-.23-.89.6-1.06 1.34zm.29 46.1 2.27-.38a18.58 18.58 0 0 0 -2.34-.25 17.65 17.65 0 0 0 -2.26.28zm-71.18 157.46c0-.85-.35-1.16-.9-1.12-.25 0-.72.4-.69.52.1.4.31 1 .61 1.07s.73-.34.98-.47zm254.56-10 1.66-.23a19.19 19.19 0 0 0 -2.13-.21 18.12 18.12 0 0 0 -2.08.23zm29.33-51.3c.82.05 1.18-.28 1.15-.84 0-.26-.38-.74-.51-.72-.4.08-1 .27-1.1.57s.33.7.46.96zm-305.33 47.78-.38-2a22.58 22.58 0 0 0 -.23 2.31 15.79 15.79 0 0 0 .27 2.15zm365.77-68.23 2-.25a10.06 10.06 0 0 0 -1.53-.29 14.73 14.73 0 0 0 -1.87.15zm-332.73 79.2c.46-.7.19-1.1-.25-1.32a1 1 0 0 0 -.81.06c-.08.39-.18.95 0 1.17s.8.08 1.06.09zm42.41-196.75a5.2 5.2 0 0 0 .28-1.33c0-.17-.42-.33-.65-.5a5.51 5.51 0 0 0 -.42 1.22c-.01.14.47.33.79.61zm-85.86 196.25c-1.29-.53-2-.86-2.71-1.1-.31-.09-1-.46-.83.28.12.4 1 .62 1.62.79a8.75 8.75 0 0 0 1.92.03zm36.79 12-1.47-1.12a5.68 5.68 0 0 0 -.7 1c0 .08.45.54.68.53a6.64 6.64 0 0 0 1.49-.41zm-11.47-37.7c-.24-.13-.56-.42-.7-.35a1 1 0 0 0 -.54.72c0 .61.4.85.92.51.21-.18.23-.57.32-.88zm74.88-176a4.7 4.7 0 0 0 .28-.74s-.31-.24-.38-.2a4.51 4.51 0 0 0 -.63.54zm-59 189.42-.25-.9c-.22.19-.58.34-.64.58s.14.58.22.87zm376.12 39.43-.15-1a2.51 2.51 0 0 0 -.3.87 4.15 4.15 0 0 0 .3 1.05zm-38.93-117.89 1-.36a7.58 7.58 0 0 0 -.94-.13 8 8 0 0 0 -1 .15zm-33.39 91.49a7.12 7.12 0 0 0 -.5.66s.26.31.34.28a3.85 3.85 0 0 0 .77-.36zm-249.87-188.25c-.1.31-.2.55-.26.81a2.08 2.08 0 0 0 0 .43c.13-.11.34-.21.35-.33a4.43 4.43 0 0 0 -.09-.91zm-1.22 8.27c.09 0 .26 0 .26-.07a2.71 2.71 0 0 0 0-.85c-.1-.46-.27-.43-.33.08a4.77 4.77 0 0 0 .07.84zm323.2 190.68a4.86 4.86 0 0 0 .11-.94c0-.1-.23-.2-.35-.3a1.42 1.42 0 0 0 0 .45 7.68 7.68 0 0 0 .24.79zm-28.32-89.33c0-.1 0-.28 0-.29a.69.69 0 0 0 -.4 0c-.44.13-.43.3 0 .39a1 1 0 0 0 .4-.1zm-375.14 107.32c.06-.12.19-.27.16-.36s-.23-.13-.36-.18c0 .12-.18.27-.15.36s.24.12.35.18zm20.07-32.95-.39-.05a3.61 3.61 0 0 0 .11.67c0 .05.25 0 .38 0-.03-.18-.07-.4-.1-.62zm68.36-111.39a.93.93 0 0 0 -.21.32 1.43 1.43 0 0 0 0 .41 1.48 1.48 0 0 0 .33-.38c.06-.08-.07-.23-.12-.35zm253.76 121.18-.61-.21.14.38zm-264.68-167.86c-.08 0-.24 0-.24.06a3.44 3.44 0 0 0 0 .46c.09 0 .25 0 .25-.06a3.54 3.54 0 0 0 -.01-.46zm-70.05 174.35-.28-.25a6.11 6.11 0 0 0 -.38.65s.18.15.27.24zm91.88-236.22.15-.26h-.19zm11.16 186.3-.19-.16v.31zm-12.15-182.28.16-.28h-.21zm-7.06 22.63v.2l.25-.12zm313 215.65.15-.25-.21-.05zm-357.89-2.31-.19.22h.37z"/><path d="m320.2 172.33a1.77 1.77 0 0 1 -1.8 1.91 1.74 1.74 0 0 1 -1.84-1.85 1.71 1.71 0 0 1 1.81-1.86 1.64 1.64 0 0 1 1.83 1.8z"/><path d="m323.75 180.85c1.41.24 2.16.84 2 2a1.68 1.68 0 0 1 -2.09 1.52 1.62 1.62 0 0 1 -1.5-1.64c.01-1.23.94-1.55 1.59-1.88z"/><path d="m115.52 144.6a2.4 2.4 0 0 1 -3 2 2.2 2.2 0 0 1 -2-2.85 2.34 2.34 0 0 1 3-2 2.55 2.55 0 0 1 2 2.85z"/><path d="m270 261.78c-3.71-.25-6-2.17-6.05-5.84s2.2-5.76 5.94-5.8c3.58 0 5.68 2.16 5.81 5.45.15 3.56-2.04 5.73-5.7 6.19zm-.45-10.19c-2.06.48-3.9 1.72-4 4.16s1.57 4 4.08 4.12 4.06-1.41 4.11-4-1.3-3.97-4.18-4.28z"/><path d="m345.65 167.82c-.19 2.22-1.35 3.61-3.67 3.76s-3.85-.93-4-3.29c-.2-2.55 1.12-4.07 3.73-4.08 2.29-.01 3.55 1.34 3.94 3.61zm-2.65-1.3a2.27 2.27 0 0 0 -3 0 2.11 2.11 0 0 0 3 3 2.2 2.2 0 0 0 0-3z"/><path d="m65.71 229.88a2.48 2.48 0 0 1 -2.59 2.47c-1.59 0-2.61-.78-2.59-2.35a2.43 2.43 0 0 1 2.5-2.56c1.57-.03 2.36.99 2.68 2.44z"/><path d="m63 239.67c-.07 1.58-.84 2.59-2.43 2.53a2.3 2.3 0 0 1 -2.42-2.57 2.24 2.24 0 0 1 2.23-2.24c1.62-.14 2.45.75 2.62 2.28z"/><path d="m403.3 282.26c-1.93-.05-3.21-.92-3.25-2.92a2.8 2.8 0 0 1 3.06-3.1 2.71 2.71 0 0 1 2.89 2.76c.22 1.89-.63 3.1-2.7 3.26zm1.13-3.25c-.3-.74-.83-1.31-1.77-1a1.2 1.2 0 0 0 -.92 1.48 1.39 1.39 0 0 0 1.8 1.11c.71-.2 1.01-.76.89-1.6z"/><path d="m393.81 279.46a1.94 1.94 0 0 1 -1.71-2.46 1.82 1.82 0 0 1 2.13-1.58 1.93 1.93 0 0 1 1.71 2.49c-.2 1.16-1.02 1.56-2.13 1.55zm.44-2.29-.33.23.33.17z"/><path d="m311 262.07c-.07 1.95-1 3.09-3 3.2a2.58 2.58 0 0 1 -3-2.51c-.17-1.9.64-3.29 2.65-3.48s3.06.85 3.35 2.79zm-4.36.08a1.28 1.28 0 0 0 1.09 1.41 1.22 1.22 0 0 0 1.51-1 1.32 1.32 0 1 0 -2.6-.45z"/><path d="m179.48 65-.61.48a6.56 6.56 0 0 1 -.37-.69s.27-.28.34-.25a4 4 0 0 1 .64.46z"/><path d="m340 166.51h3v3h-3z"/></g></svg>