<svg height="371.78" viewBox="0 0 519.88 371.78" width="519.88" xmlns="http://www.w3.org/2000/svg"><g stroke="#000" stroke-miterlimit="10" stroke-width="2" transform="translate(-8.9 -9.88)"><path d="m184.52 101.85a1.7 1.7 0 0 0 .32.38c3.88 2.71 3.95 6.2.14 9.3-.89.73-2.07 1.23-2.1 2.59 0 .6.54.85 1.05.87 1.55.06 1.66-1.37 2.28-2.29s1.17-2.1 2.49-1.45.69 1.78.31 2.66c-1.64 3.82-3.12 7.75-6.36 10.58a2.18 2.18 0 0 0 -.68 2.24c.75 4.31-1.07 7.25-4.59 9.63a35.88 35.88 0 0 0 -12.38 14.64c-4.1 8.54-8.74 16.81-11.29 26a47.35 47.35 0 0 0 1.43 30.77c7.7 19.57 15.08 39.28 23.64 58.51 2.87 6.46 5.83 12.9 11.31 17.76 2.59 2.29 5.33 3.73 9 3.65 7.07-.18 14.18.23 21.24-.12 8.63-.44 17.29-.61 25.88-1.75a2.23 2.23 0 0 1 .5-.07c7 1 11.91-2.94 17-6.86 12.19-9.41 24.55-18.61 36.82-27.9 4.38-3.32 5-6.62 2.43-11.52-4.72-8.89-9.49-17.75-14.08-26.71a9 9 0 0 0 -7.13-5.13c-4.89-.77-8.64-7-7.13-11.67.1-.3.46-.63.1-.86-.19-.13-.6 0-.91.11-4.66 1.19-5.65.81-7.66-3.45s-4.06-8.2-4.18-12.94c-.21-8.65 2.92-12.39 11.49-14 10-1.86 19.87-4 29.84-5.79 8.82-1.59 17.7-2.87 26.55-4.32 7.28-1.2 14.55-2.55 21.85-3.65 6-.9 12-1.48 18-2.3 3.54-.49 7.09-.85 10.65-1.25 6.69-.75 13.39-1.51 20.12-1.67 13.08-.3 22.26 6.63 29.82 16.39.82 1.05 1.61 2.47.77 3.7-1.44 2.08-.24 2 1.21 1.7a3.53 3.53 0 0 1 3.75 1.4 31.68 31.68 0 0 1 4.19 7c2.06 5.16 4.65 10.12 7 15.16a.93.93 0 0 0 .3.38c6.18 4.52 6.17 11.19 5.89 17.76-.3 6.89-3.81 12.18-9.09 16.51-12.29 10.07-26 18.06-39.42 26.33-6.67 4.1-13.45 8-20.17 12-.41.25-1.07.44-1 1s.8.43 1.26.46a7.91 7.91 0 0 0 6.36-2 67.21 67.21 0 0 1 32.18-16.11c9-1.85 17.94-2.64 27-.68a73.44 73.44 0 0 1 28.72 13.46 93.51 93.51 0 0 1 18.49 17.77 6 6 0 0 0 5.08 2.61c2.59 0 3.51 1.09 3.6 3.76a43.94 43.94 0 0 1 -.12 4.73c-.17 2.33 1.17 3.85 3.52 3.65 3.89-.32 7.83-.13 11.67-1a6.11 6.11 0 0 1 4.39.51c.88.47 1.94.88 1.87 2.09s-1.2 1.72-2.25 2c-3.92 1.11-7.87 2.1-11.76 3.28-3.67 1.11-7.3 2.33-11.23 1.88-1.3-.16-1.62.52-1.34 1.67a56.87 56.87 0 0 1 .65 21.55 63.39 63.39 0 0 1 -15.03 33.2 64.87 64.87 0 0 1 -60.39 21.78c-14.88-2.38-27.26-9.39-37.38-20.44a63.79 63.79 0 0 1 -15.16-28.54 72.38 72.38 0 0 1 -1.85-19.32 39.66 39.66 0 0 1 .87-5.66c.29-1.65-.4-2.3-2.12-2-9.41 1.57-18.83 3.09-28.25 4.63-1.16.19-2.45.48-3.45-.08-2-1.14-2.87-.18-3.93 1.43-5.46 8.29-16.64 7.74-21.24-1-.12-.22-.24-.44-.35-.67-1.58-3.59-1.57-3.57-5.38-1.74-19.8 9.56-40 18.27-61 24.75a195.17 195.17 0 0 1 -27.65 6.51c-5.09.79-10.13 1.77-15.32 1.9-10.55.25-19.68-3.43-28-9.62-4.61-3.43-9.09-7-13.35-10.89a51.46 51.46 0 0 1 -9.3-11c-5.21-8.42-10.49-16.8-15.74-25.19-.22-.35-.46-.69-.7-1s-.42-.65-.76-.41c-.17.12-.15.59-.11.89a5.58 5.58 0 0 0 .34.94 1.88 1.88 0 0 1 -.35 2.29c-.76.67-1.53.34-2.34.05-.57-.2-1.18-1-1.75-.33-.19.22.25 1.06.49 1.57a61.42 61.42 0 0 1 5.57 17 72.63 72.63 0 0 1 0 23.54 60.23 60.23 0 0 1 -10.18 24.61c-9.59 13.87-22.62 22.66-39.07 26.59a60.84 60.84 0 0 1 -26 .72 64.63 64.63 0 0 1 -31.41-15.48 63.76 63.76 0 0 1 -19.06-29.83 65.84 65.84 0 0 1 -1.65-29.31c2-13 7.9-24.06 16.71-33.65 1.58-1.71 3.41-3.17 5.1-4.78.58-.56 1.48-1.18-.2-1.61-2.8-.73-3.36-3-1.1-5a35.12 35.12 0 0 1 5.33-3.65 92.29 92.29 0 0 1 28.49-11 82.25 82.25 0 0 1 25.35-.74 2.08 2.08 0 0 0 2.56-1.32q3.78-8.57 7.66-17.08c.79-1.73.26-2.88-1.16-4.09-4-3.4-8.46-2.31-12.87-1.55a29.66 29.66 0 0 1 -4.69.61c-3 0-4.95-1.19-5.67-4.15-1-4-1.23-8 .4-12 2-4.93 4.21-9.78 6.53-14.57.57-1.16 1.22-2.46.58-3.56-2.08-3.61-.43-6.79 1-10 3.95-9 9.82-16.78 15.47-24.7q3.18-4.49 6.63-8.76a8.47 8.47 0 0 1 5.74-3.14 7.25 7.25 0 0 0 5.54-3.34c9.58-13.82 20.28-26.8 30.51-40.13 2-2.57 4.24-3.81 7.46-3.54a26.48 26.48 0 0 1 4.44.6c.54.14 1.25.59 1.61 0s-.6-.72-.72-1.16c-1.13-4.09-4.8-4.57-8-5.36s-6.13-1.47-7.52-4.91c-.6-1.5-1.52-.74-2.32 0s-1.66 2.08-3.16 1.43-1.39-2.13-1.41-3.45c-.09-7 2.54-13.33 5.8-19.36a122.36 122.36 0 0 1 18-24.78c1.42-1.55 2.53-2.55 2.48-5.23-.09-5.08 1.05-10.21 1.94-15.27.56-3.18 7.62-5.75 10.31-3.94a3.45 3.45 0 0 1 1.38 3.06c0 4.9.23 9.81-.7 14.68-.36 1.94-.16 4-.4 6s-.84 3.51-3.29 3.07c-1.14-.2-1.5.44-1.55 1.41v1c-.17 6.52-.13 6.44 5.77 9.11s11.38 5.87 15.95 10.53c2.84 2.9 4.63 6.09 4.35 10.4a65.77 65.77 0 0 0 .2 11.22c.26 2.35-.84 4.55-1.86 6.65-1.82 3.74-3.69 7.46-5.56 11.17-1.71 3.4-2.19 3.58-5.86 2.42a11.76 11.76 0 0 0 -1.46-.28l-1.24-.64-.12.35zm3.48-44.42-.51-.5-1-.49c-2.32-2.19-5.24-3.38-8-4.75-.53-.26-1.31-1-1.72-.32s.6 1.09 1.15 1.34c2.86 1.27 5.75 2.48 8.62 3.71l1 .49.5.51zm252.51 251.16.5.5a3.13 3.13 0 0 0 1.5 2 2.92 2.92 0 0 0 -1.5-2l-.5-.5-.5-.5-.5-.5-.5-.5-.5-.5.5.5.5.5.5.5zm-302-79.4.5 1a2.42 2.42 0 0 0 1 1.49 2.19 2.19 0 0 0 1 1.5 17.57 17.57 0 0 0 1.08 2.51c11.61 18.24 23.07 36.59 37.33 53 2.2 2.53 4.94 4.53 8.24 4.8a63.34 63.34 0 0 0 15.44-.35c.26 0 .69.12.69-.34a2.5 2.5 0 0 0 -.93-.15c-3.66 0-7.33 0-11 0a16.38 16.38 0 0 1 -13.6-6.66c-10.14-13.29-19.77-26.95-29.1-40.82-2.69-4-5-8.27-8.18-11.9a2.15 2.15 0 0 0 -1-1.5 2 2 0 0 0 -1-1.49l-.5-1c-.16-.33-.33-.65-.5-1 .2.25.37.58.53.91zm-7.5-13-.5-1-.5-1a3.64 3.64 0 0 0 -1-2 2.2 2.2 0 0 0 -1-2 7.64 7.64 0 0 0 -.53-2.66c-1.44-4.92-2.13-9.86-.7-14.95 1.59-5.7 4.76-10.58 7.63-15.63 9-15.75 18-31.43 26.88-47.22 2.6-4.63 5.78-8.94 7.72-13.93a2.2 2.2 0 0 0 1-1.49l.5-1a3.7 3.7 0 0 0 1.5-2.49 2.26 2.26 0 0 0 1-1.5 3.34 3.34 0 0 0 1-2c1.61-.91 2-2.81 3.24-4 .6-.57.55-1.21-.38-1.46-.74-.21-1.69-.39-1.74.68-.08 1.69-1 3.16-1.1 4.81a2.27 2.27 0 0 0 -1 2 2.17 2.17 0 0 0 -1 1.51 3.94 3.94 0 0 0 -1.5 2.49l-.5 1a2.17 2.17 0 0 0 -1 1.49 12.32 12.32 0 0 0 -2.67 3.58c-8.06 12.89-16.18 25.76-23.69 39-5.84 10.25-11.6 20.55-16.05 31.52a23.22 23.22 0 0 0 -1.44 12.21c.4 2.79.68 5.81 2.85 8.07a2.18 2.18 0 0 0 1 2 2.3 2.3 0 0 0 1 2c.17.33.33.66.5 1s.31.65.47.99zm188.5 84.91-.5 1.5c-.08.14-.18.27-.25.42s0 .13 0 .2c.07-.21.13-.42.19-.64.17-.5.33-1 .5-1.5zm-228.51-131.83a2.21 2.21 0 0 0 1-1.5 2.19 2.19 0 0 0 1-1.5 5.58 5.58 0 0 0 2-3 5.58 5.58 0 0 0 2-3 5.71 5.71 0 0 0 2-3l.63-.72-.18-.11-.43.85a4.22 4.22 0 0 0 -2 3 4.2 4.2 0 0 0 -2 3c-1.34.55-1.66 1.78-2 3a2 2 0 0 0 -1 1.5 2.22 2.22 0 0 0 -1 1.5zm68-125.81a2.22 2.22 0 0 0 -1 1.54 2.77 2.77 0 0 0 -.61.43c-6.41 7.92-12 16.33-15.13 26.13-.13.38-.38.95.06 1.12.63.23.75-.48 1-.88 4-7.09 8-14.16 11.91-21.31 1-1.8 2.53-3.33 2.78-5.5a2.32 2.32 0 0 0 1-1.5zm-55 262.63c-.29-.35-.54-.78-1.09-.76 0 0-.07.11-.11.17zm59.51-234.19c-.22-.3-.38-.69-.87-.61a.22.22 0 0 0 -.09.19c.17.46.59.36.96.42zm-87.51 202.25a3.47 3.47 0 0 0 -.69.69c-.2.37-.72.9-.06 1.18.31.13.52-.52.62-.91s.07-.65.11-1zm33 29a3.7 3.7 0 0 0 1 3 17.86 17.86 0 0 0 .3 4c1.53 5 .49 10-.78 14.75a35.14 35.14 0 0 1 -14.11 20.24 36.14 36.14 0 0 1 -48.59-6.33 34 34 0 0 1 -8.52-23.38c.32-13.39 6.25-24.1 18.13-31 2.29-1.34 4.7-2.47 7.05-3.69.2-.11.61.22.61-.29l-.6.3a6.33 6.33 0 0 0 -2.67.46 37.09 37.09 0 0 0 -22 44c5 19.61 26 31.73 45.45 26.21 17.4-4.93 28.27-20.25 27.15-38.25-.14-2.32.25-4.88-1.41-6.94 0-1.12.12-2.27-1-3a3.25 3.25 0 0 0 0-1c-3.47-9.81-10.39-16.36-19.7-20.62-.3-.13-.93-.43-1 .17s.67.64 1.11.84a36.23 36.23 0 0 1 17.79 17.4c.51.98.66 2.32 1.79 3.08zm66-229.23a5.66 5.66 0 0 0 -.08-.72c-.1-.35-.16-1-.54-.86s0 .68.19 1a3.94 3.94 0 0 0 .45.56 8.46 8.46 0 0 0 .52 4.17c.72 1.52 1.45 2.66 3.27.87s3.55-1.06 4.18 1.37c.34 1.31.88 1.77 2.08 1.14s3.11-.86 3.08-2.13-1.93-1.56-3.13-2.07a3.75 3.75 0 0 0 -1.94-.33 9 9 0 0 1 -8.08-3zm-20-18.48a9.24 9.24 0 0 0 -1.12 1.31c-4.19 6.93-7.27 14.53-12.5 20.85a3 3 0 0 0 -.39 1.66c0 .63-.3 1.56.34 1.83.89.38 1.21-.64 1.64-1.19a14.92 14.92 0 0 0 1.48-2.29q5.1-10.12 10.13-20.27a7.79 7.79 0 0 0 .4-1.92 4.17 4.17 0 0 0 1.65-2.56s-.27-.21-.29-.19a5.53 5.53 0 0 0 -1.3 2.53 2 2 0 0 0 -.04.24zm-52 241.67c0 1.83-.23 3.71 1.61 4.92.33.22.66.64 1.07.32s.2-.78 0-1.15c-.71-1.49-1.33-3-2.73-4.08-2.29-5.32-6.71-8.51-11.5-11.24-1.29-.74-2.39-.11-2.51 1.63-.15 2.12 2.61 5.61 4.87 5.3 4.19-.56 6.8 1.47 9.19 4.3zm57.49-246.69c2.06-1 3.94-2.53 6.43-2.51 1 0 1.45-.67 1.56-1.61.16-1.32.44-2.64.5-4 .07-1.74 0-3.49 0-5.23a1.64 1.64 0 0 0 -1.35-1.62c-1.12-.14-.52.93-.74 1.43-.5 1.14-1 2.3-1.41 3.46-1.35 3.5-3.82 6.45-4.92 10.06zm167 258.17a26.56 26.56 0 0 1 6.71-2.34c2.42-.52 5-.54 7.29-1.49 1-.43 1.4-.9.6-1.79-1.93-2.16-3.87-4.32-5.86-6.44a2.42 2.42 0 0 0 -2-.83c-2.3.33-4.59.71-6.87 1.11-.47.09-1 .29-1.14.84s.49.82.92 1c2.88 1.24 3 3.67 2.79 6.27-.14 1.67-1.72 2.38-2.41 3.68-3 0-6.09.49-7.75-2.92-.1-.22-.38-.41-.56-.13a1 1 0 0 0 0 .7c1.14 3.1 5.49 4.33 8.29 2.34zm-200.49-42.44.37.81.27-.19-.64-.61a8.54 8.54 0 0 0 -.6-1.63q-8.67-14.26-17.4-28.53c-.92-1.52-1.44-.53-1.85.32-1.46 3.07-2.8 6.21-4.32 9.25-.71 1.43-.29 2 1 2.61a69.79 69.79 0 0 1 11.15 7.05c4.44 3.25 7.85 7.49 12.02 10.92zm50 60.44-.63-.61-.17.26.82.33a36.57 36.57 0 0 0 23.36 9.95c10.85.72 21.34-1.95 31.78-4.26a244.52 244.52 0 0 0 33.07-10.26 528.72 528.72 0 0 0 49.07-21.8c20.58-10.25 40.53-21.63 60.32-33.31 12.33-7.28 24.71-14.47 36.89-22 10.68-6.6 21.33-13.27 31.14-21.21 8.44-6.84 9.88-17.19 6.26-26.34a7.32 7.32 0 0 0 -1.2-1.88 1.53 1.53 0 0 0 -2-.48c-.81.46-.4 1.17-.16 1.77 1.09 2.72 1.44 5.62 2.09 8.45a10.08 10.08 0 0 1 -.54 6.58c-2.28 5.11-6.54 8.37-10.9 11.39-9.92 6.88-20.11 13.35-30.38 19.71q-31.23 19.32-63.59 36.66c-29.11 15.53-58.8 29.78-90.08 40.49a260.8 260.8 0 0 1 -30.44 8.67 197.77 197.77 0 0 1 -19.64 3.17 40 40 0 0 1 -12.37-.87c-4.43-.94-8.43-3.07-12.7-4.41zm-.48-213.22c-1.39.1-2.6-1.54-4.07 1-9.58 16.27-18.88 32.69-28.19 49.11-4.6 8.09-9.11 16.24-13.65 24.37-.69 1.25-1.62 2.41 1 2.75 1.64.2 2.21 3.07 1.13 4.92-.82 1.42-1.89 2.47-3.56.94-1.23-1.12-1.11 0-1.18.72a25.23 25.23 0 0 0 1.48 10c2.63 8.36 7.52 15.54 12.12 22.84 7.67 12.17 15.84 24 24.19 35.73 4.5 6.29 9 12.55 13.78 18.66a12.9 12.9 0 0 0 11.09 5.22c.64 0 1.48.1 1.74-.66s-.53-1.13-1.07-1.47a23.53 23.53 0 0 1 -6.08-5.86c-6-7.77-9.23-16.89-13-25.74-6.63-15.51-12.41-31.36-18.74-47a50.42 50.42 0 0 1 -3.19-25.41c1-8.66 4.56-16.64 8.49-24.36 5.61-11.05 11.36-22 17.1-33 .76-1.46.8-2.4-.91-3.09-1.87-.75-2.1-2-1.2-3.83s2.2-3.74 2.71-5.88zm86.48 168.75a16.54 16.54 0 0 0 1.85-.73c9.63-5.13 19-10.69 28.4-16.24 11-6.53 22.08-13 33-19.78 7.65-4.72 15.58-9 22.81-14.35 4.79-3.55 5.43-5.82 3.4-11.4-2.76-7.57-7.11-14.25-11.88-20.69a7.47 7.47 0 0 0 -6.81-3.27c-5 .14-9.85 1.5-14.75 2.34-12.12 2.06-24.17 4.47-36.25 6.74-.39.08-1 0-1 .49s.56.47.94.54a10.47 10.47 0 0 1 7.77 6c4.67 9.1 9.53 18.11 14.36 27.13 2.89 5.4 1.95 9.84-3 13.55-11.17 8.41-22.35 16.79-33.5 25.24-1.84 1.4-3.86 2.61-5.32 4.48zm-72.41 27.49c2.23-.08 4.5.25 6.72-.24 5-1.09 10.09-1 15.12-1.59 3-.35 5.91-.88 8.89-1.18 7.18-.71 14.35-1.56 21.52-2.45 6.18-.77 12.34-1.66 18.51-2.5s12.5-1.69 18.74-2.59c5.34-.77 10.7-1.47 16-2.47 5-.95 10.29-1.18 15-3.34 5.07-2.32 10-4.85 15-7.39q29.36-15 57.68-31.91c17.84-10.57 35.53-21.36 52.54-33.21 3.33-2.32 6.77-4.87 8.5-8.64 2.65-5.76 0-11.18-1.93-16.55-.35-1-1.38-.68-2.22-.57-5.43.76-10.85 1.56-16.29 2.21a7 7 0 0 1 -7.28-3.34c-1.8-3-3.61-6-5.29-9s-.65-5.22 2.78-5.86c2.78-.51 5.6-.76 8.39-1.19 4.19-.64 8.37-1.33 12.55-2 .5-.08 1-.17 1-.86 0-1.39-3.08-4.49-4.51-4.42-8.14.44-16.22 1.54-24.28 2.68-7.23 1-14.42 2.38-21.63 3.57-6.63 1.1-13.27 2.14-19.89 3.28-7.12 1.23-14.22 2.55-21.32 3.85-.77.14-2 0-2.08.92-.08.73 1.13.77 1.74 1.15a10.21 10.21 0 0 1 1.42 1c9.35 8.38 16 18.71 20.82 30.13 2.67 6.34 1.81 12.55-3.82 17.47a118.23 118.23 0 0 1 -10.46 8.1c-20.17 14-42 25-63.85 36.13-11.59 5.9-23.39 10.28-36.61 10-2.21-.05-4.44.62-6.67.91a2 2 0 0 0 -1.73 1.24c-.91 2.35-2.78 2.67-5 2.8-6.14.33-12.28.8-18.43 1.16-10 .6-20.06 1.73-30.13 1.76a16.21 16.21 0 0 1 -12.53-5.8c-9.32-10.46-17.36-21.91-25.08-33.57-9.18-13.87-17.93-28-25.87-42.66-3.92-7.23-6.11-14.75-3.55-23a88 88 0 0 1 5.58-13.06c11.11-22.21 24.33-43.18 37.64-64.1a64 64 0 0 0 5.21-9.37c.78-1.86 1.35-4-.92-5.31-3.52-1.95-7.46-2.8-11.35-3.73a1.08 1.08 0 0 0 -.91.18c-.26.32.15.54.37.78 2.83 3.12 3.06 4.53 1 7.84-9.87 16.13-19.89 32.23-29.68 48.49-6 10-12.1 19.91-17.06 30.48a60.44 60.44 0 0 0 -4.92 14.35c-1 5.26 1.51 9.77 3.83 14.17 8.55 16.21 18.15 31.78 28.15 47.16 8.76 13.58 18.37 26.53 28.39 39.21 5.74 7.33 12.61 11.61 22.19 10.88zm7.41 20.68h.5a197.34 197.34 0 0 0 22.39-3.38c7.46-1.7 14.85-3.61 22.15-5.86a402.12 402.12 0 0 0 39-14.54c6-2.54 11.87-5.26 17.8-7.91a3.68 3.68 0 0 0 .76-.57 2.16 2.16 0 0 0 -.65-.11c-4.18.66-8.35 1.36-12.53 2-6 .92-12 1.83-18 2.68-5.84.82-11.69 1.53-17.53 2.31-6.58.88-13.14 2-19.74 2.62-7 .7-14 1.66-21 2.28-7.95.7-15.84 2.07-23.85 1.77-6-.23-11.39-2.14-15.74-6.51a127.11 127.11 0 0 1 -10.48-12.37q-13.83-18-26-37.22c-8.66-13.63-17.05-27.41-24.66-41.65-2.86-5.37-5.62-10.85-4.11-17.29a64 64 0 0 1 5.3-14.22c10.5-20.83 23.16-40.41 35.27-60.3 3.68-6 7.45-12 11.08-18.08 1.84-3.08 1.48-4.13-1.58-6.1-.49-.31-1-.61-1.48-.93-1.3-.87-2.32-.87-3.38.55-2.43 3.27-5 6.44-7.53 9.63-8.13 10.23-16.17 20.52-23.63 31.25a10.54 10.54 0 0 1 -6.94 4.47c-1.87.36-3.19 1.16-3.57 3.24a15.82 15.82 0 0 1 -2.41 5.46c-6.39 10.23-12.86 20.41-20.37 29.89a3 3 0 0 0 -.63 3.4 6.82 6.82 0 0 1 -.44 6.2c-2.36 4.49-4.35 9.16-6.37 13.81-1.59 3.65-1.43 7.28-.55 11a2.53 2.53 0 0 0 3.11 2.13c3.55-.43 7-1.33 10.64-1.34 5.41 0 9.21 2.53 11.9 6.91 9 14.61 17.82 29.28 26.78 43.89 6.35 10.35 13.05 20.5 19.14 31 5.63 9.72 12.76 17.83 22.46 23.57 7.71 4.53 15.89 7.69 24.89 8.32zm201.9-181.5c-2.25.1-4.48 0-6.73.3-8 1-16.06 1.42-24 2.65-5.9.91-11.87 1.41-17.78 2.3-7.38 1.12-14.73 2.45-22.1 3.69-10.47 1.75-21 3.41-31.42 5.28-8.25 1.48-16.43 3.26-24.66 4.81-5.63 1.06-8.14 3.36-8.44 9.08-.29 5.39 2 10.21 4.63 14.77.86 1.48 2.4 1.18 3.83.73a50.34 50.34 0 0 1 6.77-1.68c6.05-1 12.09-2.15 18.12-3.28 6.21-1.17 12.39-2.45 18.59-3.59 6.37-1.17 12.77-2.18 19.14-3.34 10.36-1.9 20.74-3.77 31.07-5.84 3.36-.67 7.11-.5 9.39-4.15 1-1.54 3.13-2.15 5-2.6 5.57-1.35 11.26-2.07 16.92-2.94a7.42 7.42 0 0 1 6.14 1.38c2.11 1.74 4.47 1.69 6.86 1.17 1.72-.37 3.46-.51 5.16-.83 3.42-.65 6.93-.81 10.31-1.76 1.49-.41 1.58-.93.7-2-7.17-8.64-15.61-14.76-27.51-14.15zm-270.9 166.05c.52-5.87-.85-12.08-3.11-18.12a53.57 53.57 0 0 0 -28.5-30.89c-1.47-.69-2.52-.6-3.23 1-.87 2-1.75 4-2.76 5.86-.79 1.48-.37 2.21 1.08 2.88a43.8 43.8 0 0 1 16.25 12.52c8.39 10.52 11.24 22.54 8.94 35.59a41.19 41.19 0 0 1 -14.49 24.93c-12.59 10.55-26.88 13.8-42.43 8.52-21.24-7.2-34.13-28.13-28.75-51.73 3.29-14.4 12.33-24.4 25.82-30.4 5-2.21 5.17-2.24 5.21-7.86v-1.5c0-3.38-.58-3.73-3.83-2.71a54.83 54.83 0 0 0 -24.52 15.2c-13.17 14.32-17.36 31.09-13.37 49.87a50.33 50.33 0 0 0 15.51 27.08c15.07 13.81 32.7 18.42 52.44 13.13a54.05 54.05 0 0 0 39.74-53.37zm347 1.31c.31-11.38-3.89-20.32-11-28.14-1.56-1.72-3-2-4.94-.53-4.23 3.09-8.6 6-12.92 9-4 2.77-4.25 4.45-1.06 8.14 4.13 4.77 4 9.27.4 14.45-2.45 3.55-6.14 4.94-9.43 7.12a6.5 6.5 0 0 1 -8.1-.25 28.36 28.36 0 0 1 -2.84-2.42c-7-6.83-14-13.71-21.1-20.54-3.15-3-3.9-2.79-5.18 1.29a37.49 37.49 0 0 0 .09 23 39.09 39.09 0 0 0 47.06 26.09c16.69-4.36 29.84-20.11 29.08-37.21zm-39 42.34c-4.28.4-8.9-.55-13.43-2.06-17.83-6-28.85-22-29.63-39.89a41.94 41.94 0 0 1 2.27-14.44c.34-1.12.53-2.12-1.12-1.89-3.21.43-6.4 1-9.6 1.5-.95.16-1.33.91-1.5 1.78-2.31 11.81-1.54 23.31 3.46 34.38a53.55 53.55 0 0 0 23.55 25.39c12.8 7.09 26.41 8.48 40.35 4.88s24.79-11.89 32.39-24.21a54.26 54.26 0 0 0 8.11-29.66 50.75 50.75 0 0 0 -2.85-15.88 53.86 53.86 0 0 0 -11.22-19.25c-1.42-1.55-2.85-1.87-4.59-.6-1.55 1.13-3.09 2.28-4.71 3.29-1.9 1.18-1.91 2.13-.32 3.81 10.77 11.35 14.19 24.79 10.93 40-3.9 18.26-21.69 33.3-42 32.85zm-300-43.79c.71-5.44-.59-11.63-2.43-17.67-2.16-7.1-5.29-13.44-11.26-18.63a133.82 133.82 0 0 0 -22.85-16.4c-.94-.53-2-1.15-2.74.31s.59 1.72 1.39 2.11a54.47 54.47 0 0 1 13.6 9.22c16 15.1 21.41 33.69 17 54.93a51.88 51.88 0 0 1 -18.15 29.69c-14.56 12.21-31.11 16.62-49.82 12.38-14.82-3.36-26.25-11.72-34.56-24.09s-10.91-26.34-8.3-41.2a55.66 55.66 0 0 1 15.56-29.81 57.46 57.46 0 0 1 25.14-14.75c.57-.17 1.54 0 1.42-1-.08-.74-.82-1-1.46-1.2-2.67-.89-5.32-.24-7.88.35a43.94 43.94 0 0 0 -23 13.66c-13.21 14.4-18.4 31.4-16.48 50.53a58.78 58.78 0 0 0 13 31.15c12.59 15.77 29.24 23.5 49.16 24.16a58.78 58.78 0 0 0 23.37-4.52c21.93-8.61 40.19-31.34 39.29-59.22zm300.31-56.09a58.61 58.61 0 0 1 25.51 6c3.46 1.63 4 3.88 1.36 6.59-1.09 1.14-2.28 2.19-3.46 3.24-5.64 5-11.23 10.15-17 15.07-1.86 1.6-.73 2.53.13 3.83 1.18 1.78 2.16.48 3.09-.16 6.58-4.52 13.12-9.11 19.7-13.64a46.74 46.74 0 0 1 6.74-4.27 6 6 0 0 1 6.17.34 40.67 40.67 0 0 1 6.57 5.72c5 4.94 8.77 10.89 14 15.62a5.53 5.53 0 0 0 3.24 1.67c4.14.45 7.81-1.4 11.68-2.23.2 0 .51-.31.49-.44 0-.43-.47-.37-.77-.37-1.75 0-3.5 0-5.25 0-4.14 0-6.58-2.8-6.11-6.82.1-.9 0-1.83.11-2.74.11-1.62-.55-2.45-2.25-2.59a7.84 7.84 0 0 1 -5.54-3.4 92.29 92.29 0 0 0 -26.64-23 59.22 59.22 0 0 0 -30.39-8.39 73.91 73.91 0 0 0 -24.19 4.36 62 62 0 0 0 -20.36 11.91c-.41.35-1.19.65-.88 1.32s1.06.38 1.59.25c2.08-.49 4.14 0 6.19 0 2.72 0 5.36 1.44 8.22-.31a53.35 53.35 0 0 1 28.06-7.56zm.28 118.92c6.81.58 14.06-.85 21-3.44 14.73-5.45 25.79-15.27 33.47-28.89a58.18 58.18 0 0 0 6.7-19.48 63.57 63.57 0 0 0 0-20.37c-.47-2.88-.67-6-2.78-8.42-2.78-3.19-5.52-6.43-8.3-9.64-.34-.39-.68-1.28-1.24-.87s.22 1 .48 1.51a56 56 0 0 1 6.19 38.07 54.38 54.38 0 0 1 -14.78 28.87 56.79 56.79 0 0 1 -32.61 16.91 52.64 52.64 0 0 1 -20.3-.6c-15.73-3.59-28.13-12.08-36.65-25.93a57.49 57.49 0 0 1 -7.91-22.37c-.9-6.29-.29-12.4.56-18.57.09-.68.34-1.27-.56-1.62a3.66 3.66 0 0 0 -5.06 2.75 59 59 0 0 0 1.47 27.36c7.1 25.27 31.86 45.72 60.33 44.73zm-99.39-189.84a35.92 35.92 0 0 0 -6.63.59c-5.93 1.28-11.9 2.32-17.86 3.47-5.7 1.09-11.42 2.14-17.11 3.31s-11.34 2.45-17 3.69c-1 .22-2.53.09-2.19 1.65a2.36 2.36 0 0 0 2.77 2c1.81-.3 3.61-.6 5.4-1 6.2-1.18 12.38-2.42 18.58-3.59q12.86-2.41 25.71-4.75c4.78-.86 9.19-.75 12.55 3.73 5.26 7 10.33 14.16 12.91 22.63 2.14 7 1.15 9.56-3.9 13.31-9.3 6.91-19.5 12.44-29.36 18.46-17.68 10.79-35.47 21.41-53.58 31.5-.75.42-2.4.66-2 1.64.32.78 1.81.08 2.74-.22 5.91-1.86 11.38-4.7 16.91-7.4 24-11.69 47.64-23.86 69.25-39.64 1.55-1.12 3-2.36 4.52-3.53 6.33-4.88 6.49-11 3.55-17.41a97.4 97.4 0 0 0 -15.59-23.68c-2.7-3.06-5.72-5.76-9.67-4.76zm58.27 84.85c-1 .12-2.35.24-3.67.4-7.25.89-14.51 1.67-21.73 2.74-3.32.49-6.77.52-9.85 2.31-6.62 3.83-13.33 7.51-20 11.3-1 .59-3.11 1.14-2.73 1.94.48 1 2.39.41 3.68.22 6.16-.9 12.31-1.89 18.47-2.73 9-1.21 17.92-2.38 26.9-3.44 4.34-.51 8.83-.66 12.45 2.22a144 144 0 0 1 16 15.69c5.18 5.65 11 10.7 15.95 16.51.3.35.82.92 1.22.53s-.23-.84-.53-1.17c-2.3-2.52-4.65-5-6.93-7.52-1.92-2.13-2.4-5.6-1.17-7.63a6.41 6.41 0 0 1 7.47-3.11c.46.1 1 .68 1.36.24.45-.6-.3-1-.67-1.39q-9.45-9.94-18.76-20c-4.77-5.23-10.65-6.65-17.46-7.11zm36.72 52.33a7.18 7.18 0 0 0 4.25-1.64c.32-.25.76-.54.58-1s-.69-.27-1.06-.13c-3.11 1.21-5.39 0-7.5-2.29-9.25-10.15-19.18-19.63-28.84-29.38a10.53 10.53 0 0 0 -5.86-3c-4-.75-8-.19-11.93.31-11.19 1.42-22.33 3.27-33.53 4.64-3.12.38-6.19 1.28-9.38 1.21-.79 0-1.86-.28-2.26.61s.71 1.34 1.14 2c1.95 2.92 5.46 4.74 6.06 8.62.12.77.84.67 1.43.57 4.83-.79 9.66-1.6 14.49-2.38 5-.81 10-1.62 15-2.39 5.33-.82 10.73-1.32 16-2.46 6.47-1.4 11.89-.32 16.66 4.53 6.52 6.65 13.31 13 20 19.52 1.35 1.35 2.82 2.59 4.75 2.66zm-358.52 17.7c6.63.56 12.39-2.14 17.64-6.26.7-.55 2-1.24 0-2-1.16-.43-1.17-1.34-1-2.47.28-1.92 1.19-3.7 1-5.75-.09-1.23 1.09-1.58 2.18-1.43s1.48 1 1.2 2a4.4 4.4 0 0 0 -.42 2.17c.34 1.33-1.63 3.21 0 3.78 1.18.41 2-1.92 2.66-3.15 3.34-6.05 5.21-12.39 3.28-19.35a3.17 3.17 0 0 0 -1.68-2.33c-3.11-1.38-7.58 1.81-7 5.19a17 17 0 0 1 -.48 6.88 17.9 17.9 0 0 1 -21.16 13.39c-13-2.71-18.85-17.9-10.76-28.35 3.43-4.45 5.56-9.38 7.93-14.29.22-.46.89-1 .27-1.52-.25-.2-.92.11-1.39.22-12 2.81-22 17-19.32 31 2.3 12.17 13.74 22.98 27.05 22.27zm-41.67-27.04a36.7 36.7 0 0 0 10.12 27.67c12.22 13.2 27.43 17.71 44.71 12 20.57-6.79 31.38-26.26 28-47.18-1.83-11.32-8-20.31-17.4-27a64.42 64.42 0 0 0 -7.2-4 1.28 1.28 0 0 0 -1.94.45 1.42 1.42 0 0 0 .63 2.11c.51.28 1 .51 1.58.77a39 39 0 0 1 -27 72.84c-15.1-4.07-27.21-17.79-28.62-33.54-1.09-12.18 2.59-22.42 10.66-31.27a37 37 0 0 1 14.75-9.55c1.47-.55 2-1.26 1-2.55s-1.82-.32-2.69 0c-15.12 5.82-27.4 21.22-26.6 39.25zm31.54-41.53a16.82 16.82 0 0 0 0 1.74c.23 1.95 2.85 4.56 5 4.69s2.18-2 2.74-3.29c2-4.9 4-9.85 6-14.79a15.34 15.34 0 0 1 4-6 10.08 10.08 0 0 0 2.91-4c.8-2 1.68-3.8 4.26-3.9a1.41 1.41 0 0 0 1.34-1.29c.07-1-.83-1.13-1.53-1.34a6.06 6.06 0 0 0 -1.47-.2c-11.21-.51-22.26.24-32.92 4a85.71 85.71 0 0 0 -21.37 10.64c-.57.42-1.47.82-1 1.73s1.33.63 2 .43c2.55-.75 5.1-1.51 7.61-2.39 4.39-1.53 8.71-3.2 13.38-3.85 5.46-.77 9.43 2.33 9.56 7.75a70.31 70.31 0 0 1 -.51 10.07zm372.82-12.83a52 52 0 0 0 -25.4 6.17c-.49.27-1.29.31-1.29 1s.71.87 1.22 1.12c2.53 1.27 5.07 2.56 7 4.74 1.09 1.27 2.18 1.32 3.74.76 8.63-3.07 17.65-3.76 26.17-.79 5.38 1.87 8.44.41 11.63-3.15.28-.31.6-.58.89-.88 2-2 2-2.43-.55-3.72a51.16 51.16 0 0 0 -23.41-5.27zm-339.06-4.83c0-2.6-1.5-4.24-5.06-5.7a4.59 4.59 0 0 0 -6.24 2.21c-1.42 2.51-1.52 5.44-2.56 8-2.81 6.92-6.08 13.66-9.16 20.48-3 6.63-3.14 5.27 3 8.37 2 1 2.94.55 3.81-1.37 2.88-6.36 5.84-12.68 8.83-19 1.2-2.52 2.21-5.09 4.42-7.12 1.66-1.53 2.37-3.92 2.96-5.87zm60.62-174.34a13.58 13.58 0 0 0 -4.47 1.42c-.5.2-1.33.24-1.31.93s.88.59 1.38.78c3.38 1.28 7.16 2 8.74 5.93.26.65 1 .81 1.63 1.05q11.11 4.2 22.11 8.39c1.1.42 2.06.31 2.59-.72 2.49-4.88 5.21-9.66 7.16-14.79.71-1.87-.25-2.43-2.29-2.34-2.58.11-4.19 2.7-7 2.24-4-.66-8-.71-11.6 1.66a5.34 5.34 0 0 1 -2.2.32c-3.92.38-3.93.38-4.23-3.52-.09-1.14-.22-2.27-1.64-2.39-1.64-.14-3.36-.43-4.9.37-1.23.67-2.47 1.26-3.97.67zm264.4 112.55 20.3-2.84c1.36-.2 1.31-1 .85-2-1.68-3.52-3.38-7-5.06-10.56-.45-.94-1-.92-2-.76q-10.67 1.79-21.37 3.35c-1.68.24-2.34.78-1.38 2.39 1.64 2.79 3.28 5.59 4.95 8.36.83 1.42 2.29 1.8 3.71 2.07zm-289.16 87.56c-.22-.53-.46-1.23-.78-1.9-6.38-13.21-16.54-22.69-29.22-29.68-1-.52-2.11-1.6-3.16-.49a3.81 3.81 0 0 0 -1 4.14 3.31 3.31 0 0 1 .16 2.89c-1 1.81-.11 2.63 1.45 3.47 8.31 4.46 16.06 9.69 22.66 16.53a29.84 29.84 0 0 0 8.39 5.76c.62.28 1.5 1 1.5-.72zm-54.38 11.78c.15-1.25-.62-1.66-1.36-2-1.48-.75-3.06-1.33-4.48-2.18-1.78-1.08-2.93-.63-3.74 1.15q-5 11-10 22a1.84 1.84 0 0 0 1.08 2.81c1.68.71 3.39 1.39 5 2.25s2.18.29 2.84-1.13c2.88-6.38 5.88-12.67 8.88-18.99.65-1.35 1.24-2.72 1.78-3.91zm357.53-17.25c-4-.36-7.84.6-11.68 1.69q-2.34.66-.67 2.5c2.84 3.14 5.69 6.28 8.44 9.49 1.56 1.81 3.09 2 4.88.43 3.84-3.43 7.7-6.83 11.54-10.26 1-.91 1-1.58-.46-2a32.92 32.92 0 0 0 -12.05-1.85zm-41.44-8c-6.07.58-13.67 1.3-21.27 2.07a9.3 9.3 0 0 0 -3.62 1.62c-.33.2-.84.38-.72.87s.66.41 1.05.42a12.13 12.13 0 0 0 2 0c6.49-.88 13-2 19.48-2.61 7.3-.66 14.45-.31 20.23 5.32 9.84 9.59 19 19.83 28.25 29.93 1.87 2 4.09 4 3.8 7.27a1 1 0 0 0 .8 1.11c.77.08 1-.55 1.05-1.14.52-3.32-1.23-5.72-3.26-8-7-8-14.3-15.76-21.06-24-6.6-8.03-14.5-13.03-26.73-12.83zm-215.18-207.82c-.05-.67-.49-.72-.87-.84-1.34-.44-2.71-.81-4-1.28-2.52-.89-4.81-2.31-7.77-.72-1.75.94-3.27-.51-3.22-2.62a2 2 0 0 0 -1.21-2 2.21 2.21 0 0 0 -2.79.07c-1.83 1.67-3.77 3.17-4.83 5.37-2.72 5.42-5.39 10.87-8.06 16.31-.23.49-.89 1.25-.42 1.52.7.38 1-.59 1.39-1.08 2.19-3 3.53-6.38 5.16-9.65 2.08-4.18 5.87-5.36 10.16-5.48 4-.12 6.62 1.74 7.84 5.56.28.87.66 1.7 1 2.56.14.37.15 1 .63.93s.35-.64.43-1c.71-3.28 2.34-5.83 5.58-7.13.29-.16.66-.34.98-.52zm-74 171.71c-.86-1.53-1.72-3.13-2.64-4.69s-1.53-1.55-2.29.19c-2.66 6.08-5.32 12.16-8.16 18.16-1.22 2.58.83 2.76 2.16 3.46s2.59 1.33 3.53-.88c2-4.66 4.26-9.18 6.4-13.77.36-.74.63-1.53 1.01-2.47zm-32.69 117.04h3.75c1.24 0 2.49-.19 2.53-1.74s-.52-2.82-2.21-3.19a7 7 0 0 0 -2-.1 26.65 26.65 0 0 1 -18.31-5.14c-1.78-1.28-3.09-.28-4.11.9-1.31 1.53.18 2.41 1.22 3.16a31.27 31.27 0 0 0 19.13 6.11zm-33.88-34.11c.65 4.63.88 9.14 2.85 13.29.7 1.47 1.64 2.67 3.46 2s1.79-2.15 1.15-3.73c-2.73-6.69-3.33-13.48-.89-20.4.69-2-.55-3.11-2-3.7s-2.13.84-2.6 2c-1.44 3.43-1.28 7.16-1.97 10.54zm67.22 6.36c-.23-1.3-.23-2.95-2.24-2.44a3.34 3.34 0 0 0 -2.85 3 26 26 0 0 1 -5.51 12.62 45.19 45.19 0 0 1 -4.07 4.36c-1.5 1.46-.89 3 0 4.28 1 1.52 2.27.33 3.19-.38a34.25 34.25 0 0 0 11.48-21.44zm67.66-302.91c0-1.41 0-2.82 0-4.23 0-.79-.26-1.46-1.25-1.54a4.64 4.64 0 0 0 -4.75 4.23c-.41 3.78-.85 7.56-1.45 11.31s.85 6 4.56 6.78c.87.19.95-.11 1.07-.81a126.3 126.3 0 0 0 1.82-15.74zm202.27 156.32c8.11-1.37 16.22-2.69 24.31-4.15 1.09-.19 3 .31 3.1-1.32s-1.76-2-3-2.56a4.24 4.24 0 0 0 -2.19-.34 175.73 175.73 0 0 0 -18.68 3.14 7.84 7.84 0 0 0 -4.36 3.17 1.58 1.58 0 0 0 -.26 1.65c.22.49.65.44 1.08.41zm-227.08-92.31c1.07-.43 2.43-1.07 3.85-1.5 1.59-.49 2.5-1.2 2.56-3.09a3.44 3.44 0 0 1 2.85-3.33c1.17-.25 1.44-.78 1.11-1.94a16.2 16.2 0 0 1 0-9.05c.4-1.32-.31-1.09-1-.8a8.21 8.21 0 0 0 -4.25 4.35c-1.85 4.29-3.78 8.49-7.36 11.68-.89.8-.5 1.65 0 2.48a1.93 1.93 0 0 0 2.24 1.2zm-83 199.3a30.13 30.13 0 0 0 -14.76 7.22c-1.08 1-2.18 2.26-.79 3.59a2.92 2.92 0 0 0 4.26 0 28.58 28.58 0 0 1 13.39-6.33c2.32-.46 2.45-2.46 3.13-4.07.24-.57-.27-.71-.71-.46-1.39.74-2.79.21-4.53.05zm371.65 28.62a3.44 3.44 0 0 0 -.29-.42c-2-2.22-3.92-4.53-6-6.63a3.11 3.11 0 0 0 -4.69 0c-1.51 1.42-2.51 3-1 5s3.09 3.69 4.68 5.5c.69.79 1 .91 1.68-.32.93-1.82 2.34-3.47 4.88-2.73.36.13.78.3.73-.4zm-360.84 15.28c0 3.53.16 3.65 3 2.06a13.88 13.88 0 0 0 5.91-5.55c.49-.93 1-1.76-.45-2.4a2.43 2.43 0 0 1 -1.32-2.93c.26-1.31 1.26-1.66 2.44-1.63.93 0 1.53-.34 1.27-1.32-.57-2.15-.92-4.4-2.24-6.29-.27-.38-.55-1.08-1.06-.87-.78.34-.18 1 0 1.49.62 2 1.57 4-.26 5.81a10.39 10.39 0 0 0 -2.35 4.06 5.85 5.85 0 0 1 -2.75 3.45 3.6 3.6 0 0 0 -2.19 4.12zm246.73-12.5a10 10 0 0 0 6.66-2.34c.74-.56 2.06-1.31 1.4-2.28s-1.77 0-2.59.51c-1.4.86-2.64 2-4.44 2.06-4.42.24-7.57-2.05-8.85-6.39-.24-.8 0-2.45-1.44-2.07-1.16.3-.71 1.66-.55 2.63a9.84 9.84 0 0 0 9.78 7.88zm-141.36-247.74c-2.36 0-3.47.86-3.8 3a5 5 0 0 0 4.29 5.5c1 .15 1.13-.49 1.14-1.16a4.92 4.92 0 0 1 1.75-3.73c2-1.68.82-2.34-.73-3.06a5.94 5.94 0 0 0 -2.65-.55zm-92.94 279.12c-.13-2.57-1.73-3.62-4.05-2.69-1.15.45-2.31.88-3.49 1.26a1.37 1.37 0 0 0 -.89 2.14c.48 1 .23 3 2 2.66a16.76 16.76 0 0 0 6-2.34.9.9 0 0 0 .43-1.03zm-38.26-48.64c-.45-1.35-1.94-1.65-2.8-2.6-.71-.76-1.39.05-1.8.64q-1.5 2.14-2.86 4.37c-.4.64-.76 1.48.25 1.87 1.17.46 2.3 2.37 3.41 1.32 1.57-1.49 2.52-3.64 3.8-5.6zm-3 35.09a12.69 12.69 0 0 0 -3.17 2.05c-.68.78.39 1.66.9 2.35.72 1 1.61 1.88 2.41 2.83s1.57 1.07 2.85.16c2-1.42 2.31-2.45.37-4.07a18.45 18.45 0 0 1 -1.88-2.3c-.33-.47-.65-.98-1.51-1.02zm36.1-36.29a3.8 3.8 0 0 1 2.53.92c1.31 1.08 2 .42 2.77-.66 1-1.32.21-2-.75-2.58-1.57-.93-3.22-1.73-4.83-2.57-.64-.33-1.31-.5-1.75.25-.84 1.44-1.91 3.11-1.37 4.62.43 1.21 2.06 0 3.15 0zm18.73 19.48c.26.82-.79 2.51.59 3.26a3 3 0 0 0 4.41-2.9 18.36 18.36 0 0 0 -.32-3c-.22-1.24-.93-1.61-2.28-1.66-3.24-.05-2.51 2.07-2.4 4.3zm-5-14.4c0-2-1.24-3.61-3-3.49a3 3 0 0 0 -3 3.25c0 2.06 1.11 3.54 2.89 3.63a3.11 3.11 0 0 0 3.11-3.39zm82.67-191.37c2.85 0 4.48-1 4.18-2.67-.41-2.39-2.53-2.25-4.33-2.32-1.37-.06-2.85.13-3 1.86-.2 2.26.86 3.15 3.17 3.13zm-1.86 22c-.28-1-.54-1.83-.79-2.7-.15-.53-.09-1.26-.89-1.27-.56 0-.81.51-1 1q-2.27 4.39-4.51 8.83a2.94 2.94 0 0 0 -.14.91 3.55 3.55 0 0 0 .82-.35c1.81-1.45 3.61-2.9 5.39-4.39.61-.56 1.24-1.15 1.14-2.02zm10.95-60c-1.36.23-2.64 1-2.59 2.6s1.18 2.43 2.86 2.43a2.32 2.32 0 0 0 2.6-2.39c.06-1.6-1.02-2.51-2.85-2.61zm-119.69 255.33c-.17-1.43.34-2.85-.87-3.86-.51-.43-1.14-.82-1.81-.44-.9.49-.35 1.1 0 1.65a2.42 2.42 0 0 1 -.1 3c-.92 1.2-.26 1.82.87 2.15 3.15.92 1.25-1.77 1.91-2.5zm102.3-273.83c-.1-.52-.36-1.09-.85-1.11-1.3 0-2.78-.28-3.86.25a2.56 2.56 0 0 0 -1.13 3.21c.67 1.21 1.72.07 2.56-.33s1.64-.81 2.45-1.21c.36-.18.82-.27.83-.81zm2.21 2.26c-.82.18-1.66 0-1.8.62-.19.77.71.77 1.2.94 3.2 1.11 6.41 2.17 9.63 3.24a2.23 2.23 0 0 0 .68 0c-.09-.14-.14-.33-.26-.4a84.84 84.84 0 0 0 -9.45-4.4zm51.91 237c3.46.22 7.21-.83 11-1 .6 0 1.73.26 1.65-.5s-1.25-.59-1.89-.45a53.17 53.17 0 0 1 -11.4 1 10.32 10.32 0 0 0 -4.23.82l4.2.16zm-147.68 10.92c.57-.78 2.69 0 2.52-2-.09-.94.14-2.86-1.41-2.67-1.77.21-1.78 2.32-2.41 3.67-.35.77.33.99 1.3 1zm121.54-11.91a33.13 33.13 0 0 0 7.32-.55 4.42 4.42 0 0 0 .68-.21 2.1 2.1 0 0 0 -.59-.24q-6 0-12 0c-.37 0-1 0-.87.6s.67.38 1.07.38zm-119.68-28c-.16-.27-.24-.57-.4-.63a.81.81 0 0 0 -1 .55q-1.57 3.8-3.09 7.61c-.07.2 0 .47.06.7.21 0 .55 0 .61-.11 1.29-2.76 2.55-5.44 3.82-8.15zm-5.67 61.36c0-1-.32-1.81-1.54-1.8s-1.41.69-1.43 1.64a1.55 1.55 0 0 0 1.64 1.75c1.19.11 1.33-.65 1.33-1.59zm84.19-243.84c1 0 1.63-.44 1.7-1.45a1.46 1.46 0 0 0 -1.4-1.72c-1-.11-1.69.24-1.8 1.26a1.62 1.62 0 0 0 1.5 1.91zm282.12 234.92c-.15.07-.42.16-.41.2.38 1.81-1.38 2.72-1.75 4.2a1.51 1.51 0 0 0 .91 1.63 1.17 1.17 0 0 0 .92 0c.67-.32.64-.91.36-1.49-.51-1-.07-1.91.37-2.82a1.21 1.21 0 0 0 -.4-1.72zm-229.84-22.46c1.68.21 3.8-.26 5.95-.51a7.43 7.43 0 0 0 .93-.23 3.21 3.21 0 0 0 -.82-.25c-2.33 0-4.67 0-7 .09a23.49 23.49 0 0 0 -3.39.63c1.07.56 2.21.13 3.31.26.18.02.35.01 1.02.01zm-125.28-7.27c0-.48.3-1.63-.61-1.25-1.13.46-1.59 1.83-1.65 3.11a1 1 0 0 0 1.07 1.14c1.36-.14.87-1.36 1.07-2.16a6.74 6.74 0 0 0 .12-.84zm96.07-167.35c0-.78-.4-1.16-1.08-1.08-1.22.13-1.53 1.17-1.76 2.11-.14.58.46.85 1 .85 1.24.05 1.58-.88 1.84-1.88zm-123.26 199.12-.53.13c.06.21.06.55.19.62 1.84.88 3.71 1.73 5.57 2.57a.57.57 0 0 0 .43-.11c0-.2 0-.52-.14-.58-1.84-.91-3.7-1.75-5.52-2.63zm132.52-237.18c-1.73-.13-2.57.85-3.52 1.6-.35.28-1.09.52-.71 1s1.11.21 1.5-.19a4 4 0 0 1 2.72-1.49c.37 0 1-.1.76-.65-.08-.21-.69-.21-.75-.27zm-12.69 35.48c0-.59-.14-1.22-.79-1-1.1.37-1.44 1.46-1.75 2.46a.6.6 0 0 0 .69.77c1.32-.17 1.45-1.36 1.85-2.23zm-5-17.52a2.49 2.49 0 0 0 -.6.4s.08.35.19.39q2.55.93 5.12 1.8c.09 0 .24-.14.36-.21-.09-.13-.15-.33-.27-.38-1.58-.68-3.18-1.33-4.79-2zm-111.74 223.89c-.57 0-1 .25-.81.75.22.81.63 1.6 1.65 1.53a1 1 0 0 0 .95-1c-.11-1.07-1.14-.99-1.79-1.28zm17.29-15.09c.08-.44 0-.81-.44-.61-.84.37-1.66.84-1.81 1.87-.08.51.09 1.21.67 1 1.06-.29 1.2-1.47 1.58-2.26zm88.8-238.77a.94.94 0 0 0 -.83 1.08c.13.75.48 1.47 1.34 1.54.51 0 .65-.48.55-.89-.16-.66-.14-1.52-1.06-1.73zm155.72 234.45c-.73 0-1.14.35-1.13 1a1 1 0 0 0 1.09 1.05.89.89 0 0 0 1-.88 1 1 0 0 0 -.96-1.17zm-128.15-235.33a4 4 0 0 0 -2.11-2.46c-.25-.11-.33.28-.24.5.44 1 .79 2.19 1.95 2.66.43.18.45-.3.4-.7zm-107.62 237.18c.52-.05.58-.41.39-.71-.4-.58-.16-1.61-1.08-1.77-.43-.08-.68.44-.64.88a2 2 0 0 0 1.33 1.6zm2.67 4.4a.74.74 0 0 0 -.65-.82.75.75 0 0 0 -.94.82.73.73 0 0 0 .77.76c.47.02.73-.25.82-.76zm85.41-188a.77.77 0 0 0 -.86-.65c-.45 0-.82.24-.79.71a.85.85 0 0 0 1 .8c.44-.05.66-.4.65-.86zm-4.21-37.63c0-.39 0-.85-.44-1s-.73.24-.79.67-.08 1 .54 1.11.57-.38.69-.78zm7.92 29.36a1.13 1.13 0 0 0 1-.93c.07-.41-.3-.51-.64-.49-.51 0-1 .21-.95.82a.59.59 0 0 0 .54.59zm-5.39-79.36c-.18.66-.39 1.34-.54 2-.06.27.15.56.41.39.73-.47.57-1.27.58-2 .02-.13.02-.39-.45-.39zm16.06 33.31a10.21 10.21 0 0 0 -1.16-1c-.24-.15-.46.11-.39.38a1.56 1.56 0 0 0 1.14 1.13c.26.12.46-.01.41-.5zm246.21 249c-.13-.09-.3-.32-.47-.32a.51.51 0 0 0 -.49.66c0 .17.29.42.45.42.38 0 .51-.3.51-.76zm-355.24-8.68a4.86 4.86 0 0 0 -.36 1.07c0 .27.21.47.46.31a.84.84 0 0 0 .27-.6c.01-.18-.16-.35-.37-.78zm-7.23 8.8c-.15-.19-.28-.42-.31-.4a2.54 2.54 0 0 0 -.51.32c.09.11.19.34.25.33a2.31 2.31 0 0 0 .57-.25zm402.81-.43a4 4 0 0 0 -.08.78c0 .11.14.21.21.31a3.24 3.24 0 0 0 .12-.68c0-.13-.13-.24-.25-.41zm-347-121.44-.3-.27c-.09.12-.24.23-.25.35s0 .52.36.33c.15-.08.17-.29.23-.43zm39.42-120.23-.31-.21a1.46 1.46 0 0 0 -.12.33s.13.13.15.12a2.09 2.09 0 0 0 .28-.24zm4.76 9.16a1.8 1.8 0 0 0 -.07.38s.15.11.16.1a3.08 3.08 0 0 0 .24-.27z"/><path d="m66.36 325.13.19.08c0-.06.09-.13.07-.17a.17.17 0 0 0 -.17-.08s-.06.11-.09.17z"/><path d="m170.68 45.59h.19a.3.3 0 0 0 0-.21c-.08-.22-.18-.22-.25 0 .01.06.05.14.06.21z"/><path d="m176.15 27.77a.6.6 0 0 0 -.06.22c.06.24.17.25.27 0a.25.25 0 0 0 0-.22s-.15.01-.21 0z"/><path d="m83.47 303.89c-.06 0-.14 0-.16.07s0 .1 0 .16.14 0 .16-.07.01-.05 0-.16z"/><path d="m64.3 339.78a1.84 1.84 0 0 1 -1.94-1.57 1.71 1.71 0 0 1 1.64-1.89 57.71 57.71 0 0 0 6.76-1.11 1.57 1.57 0 0 1 2 1.45c.16 1-.51 1.56-1.4 1.75-2.36.49-4.71.91-7.06 1.37z"/><path d="m48.2 312.41a1.68 1.68 0 0 1 1.49-1.63 1.64 1.64 0 0 1 2 1.06 23.48 23.48 0 0 0 2.8 5.6 1.74 1.74 0 0 1 -.45 2.45c-.64.55-1.62.69-2 0-1.4-2.47-2.62-5.06-3.84-7.48z"/><path d="m99.77 315.39c0 1.21-.46 1.76-1.26 2s-1.87.05-2.09-.84c-.31-1.29-.89-2.46-1.23-3.71a1.55 1.55 0 0 1 1-1.84 1.65 1.65 0 0 1 2.19.64c.7 1.23.19 2.96 1.39 3.75z"/><path d="m85.69 335.55c0 1.12-3.73 4.08-4.72 3.83a2.15 2.15 0 0 1 -.86-.45c-.5-.42-.74-1.13-.32-1.55 1.26-1.24 2.19-2.91 3.93-3.54.73-.26 1.37.44 1.77 1.11a2.8 2.8 0 0 1 .2.6z"/><path d="m60.72 330.44c-.22 1-.92 2-1.6 1.72a20.36 20.36 0 0 1 -4.81-2.6c-.54-.38-.16-1.42.43-2 .22-.2.68-.44.88-.34 1.61.76 3.38 1.22 4.78 2.39.21.2.24.61.32.83z"/><path d="m58.42 301.81a19.25 19.25 0 0 0 -1.34 3.75 1.52 1.52 0 0 1 -2.1.77 1.45 1.45 0 0 1 -.86-1.85 30.29 30.29 0 0 1 1.23-3.74 1.37 1.37 0 0 1 1.85-.8 1.9 1.9 0 0 1 1.22 1.87z"/><path d="m68.05 262.45a3.46 3.46 0 1 1 3.4 3.62 3.63 3.63 0 0 1 -3.4-3.62z"/><path d="m68.87 269.72a3.54 3.54 0 0 1 3.44 3.56 3.33 3.33 0 0 1 -3.58 3.34 3.57 3.57 0 0 1 -3.65-3.35 3.77 3.77 0 0 1 3.79-3.55z"/><path d="m181.44 88.92c1.22.21 3.25-.48 3.31 2s-1.45 4-3.92 4c-2.76 0-4.17-.93-4.13-2.79s1.8-3.21 4.74-3.21zm.34 2c-.45 0-.79.2-.79.69s.12.86.63.86.7-.36.8-.77-.15-.7-.64-.76z"/><path d="m191.79 73.73c-.06.47-.3.8-.78.79s-.85-.44-.81-1a.78.78 0 0 1 .78-.8c.64 0 .79.48.81 1.01z"/></g></svg>